  0
SECTION
  2
HEADER
  9
$ACADVER
  1
AC1009
  9
$INSUNITS
 70
     5
 9
$MEASUREMENT
 70
    1
  0
ENDSEC
  0
SECTION
  2
TABLES
  0
TABLE
  2
LAYER
 70
     8
  0
LAYER
  2
0
 62
     7
 70
0
  6
CONTINUOUS
  0
LAYER
  2
1
 62
     1
 70
0
  6
CONTINUOUS
  0
LAYER
  2
2
 62
     2
 70
0
  6
CONTINUOUS
  0
LAYER
  2
3
 62
     3
 70
0
  6
CONTINUOUS
  0
LAYER
  2
4
 62
     4
 70
0
  6
CONTINUOUS
  0
LAYER
  2
5
 62
     5
 70
0
  6
CONTINUOUS
  0
LAYER
  2
6
 62
     6
 70
0
  6
CONTINUOUS
  0
LAYER
  2
7
 62
     7
 70
0
  6
CONTINUOUS
  0
ENDTAB
  0
TABLE
  2
STYLE
 70
     1
  0
STYLE
 70
     0
  2
STANDARD
  3
TXT
 40
0.00
 41
1.00
 42
1.00
 50
0.00
 71
     0
  0
ENDTAB
  0
ENDSEC
  0
SECTION
  2
BLOCKS
  0
BLOCK
  8
0
  2
EPAD
 70
0
 10
0.0
 20
0.0
  0
POLYLINE
  8
0
 66
1
 70
1
 40
0.5
 41
0.5
  0
VERTEX
  8
0
 10
-0.25
 20
0.0
 42
1.0
  0
VERTEX
  8
0
 10
0.25
 20
0.0
 42
1.0
  0
SEQEND
  8
0
  0
ENDBLK
  8
0
  0
BLOCK
  8
0
  2
RPAD
 70
0
 10
0.0
 20
0.0
  0
TRACE
  8
0
 10
-0.5
 20
-0.5
 11
-0.5
 21
0.5
 12
0.5
 22
-0.5
 13
0.5
 23
0.5
  0
ENDBLK
  8
0
  0
ENDSEC
0
SECTION
2
ENTITIES
0
POLYLINE
8
1
66
1
40
0.177800
41
0.177800
0
VERTEX
8
1
10
6.547000
20
-3.853000
0
VERTEX
8
1
10
6.932000
20
-3.468000
0
VERTEX
8
1
10
7.211000
20
-3.468000
0
SEQEND
8
1
0
POLYLINE
8
1
66
1
40
0.203200
41
0.203200
0
VERTEX
8
1
10
0.879000
20
6.735000
0
VERTEX
8
1
10
1.133000
20
6.735000
0
SEQEND
8
1
0
POLYLINE
8
1
66
1
40
0.127000
41
0.127000
0
VERTEX
8
1
10
0.910000
20
-3.325175
0
VERTEX
8
1
10
0.910000
20
-3.331169
0
SEQEND
8
1
0
POLYLINE
8
1
66
1
40
0.127000
41
0.127000
0
VERTEX
8
1
10
0.910000
20
-3.246000
0
VERTEX
8
1
10
0.910000
20
-3.325175
0
SEQEND
8
1
0
POLYLINE
8
1
66
1
40
0.127000
41
0.127000
0
VERTEX
8
1
10
-2.426369
20
-3.223000
0
VERTEX
8
1
10
-2.426369
20
-3.212511
0
SEQEND
8
1
0
POLYLINE
8
1
66
1
40
0.127000
41
0.127000
0
VERTEX
8
1
10
-0.360000
20
-3.246000
0
VERTEX
8
1
10
-0.360000
20
-3.473119
0
VERTEX
8
1
10
-0.112500
20
-3.720619
0
VERTEX
8
1
10
-0.112500
20
-3.723500
0
SEQEND
8
1
0
POLYLINE
8
1
66
1
40
0.127000
41
0.127000
0
VERTEX
8
1
10
0.402000
20
-3.246000
0
VERTEX
8
1
10
0.402000
20
-3.374084
0
VERTEX
8
1
10
0.300684
20
-3.475400
0
VERTEX
8
1
10
0.300684
20
-3.476316
0
VERTEX
8
1
10
0.141500
20
-3.635500
0
VERTEX
8
1
10
0.141500
20
-3.723500
0
SEQEND
8
1
0
POLYLINE
8
1
66
1
40
0.203200
41
0.203200
0
VERTEX
8
1
10
-5.420000
20
5.377000
0
VERTEX
8
1
10
-5.420000
20
4.939000
0
SEQEND
8
1
0
POLYLINE
8
1
66
1
40
0.101600
41
0.101600
0
VERTEX
8
1
10
-1.376000
20
-3.246000
0
VERTEX
8
1
10
-1.376000
20
-3.341437
0
VERTEX
8
1
10
-1.507999
20
-3.473436
0
VERTEX
8
1
10
-2.006455
20
-3.473436
0
VERTEX
8
1
10
-2.138000
20
-3.341891
0
VERTEX
8
1
10
-2.138000
20
-3.246000
0
SEQEND
8
1
0
POLYLINE
8
1
66
1
40
0.127000
41
0.127000
0
VERTEX
8
1
10
1.672000
20
-3.246000
0
VERTEX
8
1
10
1.672000
20
-3.347551
0
VERTEX
8
1
10
1.536551
20
-3.483000
0
VERTEX
8
1
10
1.067825
20
-3.483000
0
VERTEX
8
1
10
0.910000
20
-3.325175
0
SEQEND
8
1
0
POLYLINE
8
1
66
1
40
0.101600
41
0.101600
0
VERTEX
8
1
10
-1.382500
20
-3.723500
0
VERTEX
8
1
10
-1.382500
20
-3.644500
0
VERTEX
8
1
10
-1.224265
20
-3.486265
0
VERTEX
8
1
10
-0.668374
20
-3.486265
0
VERTEX
8
1
10
-0.609584
20
-3.427475
0
VERTEX
8
1
10
-0.609584
20
-3.250416
0
VERTEX
8
1
10
-0.614000
20
-3.246000
0
SEQEND
8
1
0
POLYLINE
8
1
66
1
40
0.177800
41
0.177800
0
VERTEX
8
1
10
-1.720304
20
6.675696
0
VERTEX
8
1
10
-1.927225
20
6.675696
0
SEQEND
8
1
0
POLYLINE
8
1
66
1
40
0.127000
41
0.127000
0
VERTEX
8
1
10
1.133000
20
6.735000
0
VERTEX
8
1
10
2.729833
20
6.735000
0
VERTEX
8
1
10
4.414000
20
5.050833
0
VERTEX
8
1
10
4.414000
20
-3.260000
0
VERTEX
8
1
10
3.951500
20
-3.722500
0
SEQEND
8
1
0
POLYLINE
8
1
66
1
40
0.127000
41
0.127000
0
VERTEX
8
1
10
4.500000
20
-3.700000
0
VERTEX
8
1
10
4.199000
20
-4.001000
0
VERTEX
8
1
10
-0.296000
20
-4.001000
0
VERTEX
8
1
10
-0.573500
20
-3.723500
0
VERTEX
8
1
10
-0.620500
20
-3.723500
0
SEQEND
8
1
0
POLYLINE
8
1
66
1
40
0.127000
41
0.127000
0
VERTEX
8
1
10
1.587000
20
3.980000
0
VERTEX
8
1
10
1.586000
20
3.981000
0
SEQEND
8
1
0
POLYLINE
8
1
66
1
40
0.127000
41
0.127000
0
VERTEX
8
1
10
-8.990000
20
-2.203000
0
VERTEX
8
1
10
-8.914177
20
-2.203000
0
VERTEX
8
1
10
-8.913401
20
-2.202224
0
VERTEX
8
1
10
-8.734702
20
-2.202224
0
VERTEX
8
1
10
-8.520432
20
-1.987954
0
VERTEX
8
1
10
-8.520432
20
2.582707
0
VERTEX
8
1
10
-7.843466
20
3.259673
0
VERTEX
8
1
10
-2.370327
20
3.259673
0
VERTEX
8
1
10
-2.075000
20
3.555000
0
SEQEND
8
1
0
POLYLINE
8
1
66
1
40
0.127000
41
0.127000
0
VERTEX
8
1
10
1.472658
20
4.094342
0
VERTEX
8
1
10
1.882018
20
4.094342
0
VERTEX
8
1
10
1.948130
20
4.028230
0
SEQEND
8
1
0
POLYLINE
8
1
66
1
40
0.127000
41
0.127000
0
VERTEX
8
1
10
1.586000
20
3.981000
0
VERTEX
8
1
10
1.472658
20
4.094342
0
SEQEND
8
1
0
POLYLINE
8
1
66
1
40
0.127000
41
0.127000
0
VERTEX
8
1
10
1.442279
20
4.094342
0
VERTEX
8
1
10
1.442179
20
4.094442
0
VERTEX
8
1
10
1.332234
20
4.094442
0
SEQEND
8
1
0
POLYLINE
8
1
66
1
40
0.127000
41
0.127000
0
VERTEX
8
1
10
1.097000
20
3.902000
0
VERTEX
8
1
10
1.289342
20
4.094342
0
VERTEX
8
1
10
1.442279
20
4.094342
0
SEQEND
8
1
0
POLYLINE
8
1
66
1
40
0.127000
41
0.127000
0
VERTEX
8
1
10
1.472658
20
4.094342
0
VERTEX
8
1
10
1.442279
20
4.094342
0
SEQEND
8
1
0
POLYLINE
8
1
66
1
40
0.127000
41
0.127000
0
VERTEX
8
1
10
-3.403000
20
-4.664427
0
VERTEX
8
1
10
-3.403000
20
-5.357312
0
VERTEX
8
1
10
-1.636500
20
-7.123812
0
VERTEX
8
1
10
-1.636500
20
-8.549500
0
SEQEND
8
1
0
POLYLINE
8
1
66
1
40
0.127000
41
0.127000
0
VERTEX
8
1
10
-1.890500
20
-8.549500
0
VERTEX
8
1
10
-1.890500
20
-7.192960
0
VERTEX
8
1
10
-3.653000
20
-5.430460
0
VERTEX
8
1
10
-3.653000
20
-4.663427
0
SEQEND
8
1
0
POLYLINE
8
1
66
1
40
0.127000
41
0.127000
0
VERTEX
8
1
10
-1.382500
20
-8.549500
0
VERTEX
8
1
10
-1.382500
20
-7.054664
0
VERTEX
8
1
10
-3.144000
20
-5.293164
0
VERTEX
8
1
10
-3.144000
20
-4.668427
0
SEQEND
8
1
0
POLYLINE
8
1
66
1
40
0.127000
41
0.127000
0
VERTEX
8
1
10
1.564000
20
3.981000
0
VERTEX
8
1
10
1.586000
20
3.981000
0
SEQEND
8
1
0
POLYLINE
8
1
66
1
40
0.203200
41
0.203200
0
VERTEX
8
1
10
-1.407000
20
6.903413
0
VERTEX
8
1
10
-1.407000
20
6.735000
0
SEQEND
8
1
0
POLYLINE
8
1
66
1
40
0.127000
41
0.127000
0
VERTEX
8
1
10
-1.407000
20
6.903413
0
VERTEX
8
1
10
-1.407000
20
6.988000
0
SEQEND
8
1
0
POLYLINE
8
1
66
1
40
0.127000
41
0.127000
0
VERTEX
8
1
10
1.971000
20
3.555000
0
VERTEX
8
1
10
-0.403000
20
3.555000
0
VERTEX
8
1
10
-2.618179
20
1.339821
0
VERTEX
8
1
10
-2.618179
20
-2.606821
0
VERTEX
8
1
10
-2.137507
20
-3.087493
0
VERTEX
8
1
10
-2.137507
20
-3.245507
0
VERTEX
8
1
10
-2.138000
20
-3.246000
0
SEQEND
8
1
0
POLYLINE
8
1
66
1
40
0.127000
41
0.127000
0
VERTEX
8
1
10
0.371000
20
6.735000
0
VERTEX
8
1
10
0.371000
20
6.512595
0
VERTEX
8
1
10
0.574595
20
6.309000
0
VERTEX
8
1
10
2.455615
20
6.309000
0
VERTEX
8
1
10
3.956998
20
4.807617
0
VERTEX
8
1
10
3.956998
20
-3.063769
0
VERTEX
8
1
10
3.443500
20
-3.577267
0
VERTEX
8
1
10
3.443500
20
-3.722500
0
SEQEND
8
1
0
POLYLINE
8
1
66
1
40
0.127000
41
0.127000
0
VERTEX
8
1
10
0.625000
20
6.735000
0
VERTEX
8
1
10
0.625000
20
6.601000
0
VERTEX
8
1
10
0.724000
20
6.502000
0
VERTEX
8
1
10
2.621566
20
6.502000
0
VERTEX
8
1
10
4.185499
20
4.938067
0
VERTEX
8
1
10
4.185499
20
-3.158416
0
VERTEX
8
1
10
3.697500
20
-3.646415
0
VERTEX
8
1
10
3.697500
20
-3.722500
0
SEQEND
8
1
0
POLYLINE
8
1
66
1
40
0.127000
41
0.127000
0
VERTEX
8
1
10
-0.137000
20
6.735000
0
VERTEX
8
1
10
-0.137000
20
6.365890
0
VERTEX
8
1
10
0.355214
20
5.873676
0
VERTEX
8
1
10
2.251009
20
5.873676
0
VERTEX
8
1
10
3.467704
20
4.656981
0
VERTEX
8
1
10
3.467704
20
-2.906767
0
VERTEX
8
1
10
2.935500
20
-3.438971
0
VERTEX
8
1
10
2.935500
20
-3.722500
0
SEQEND
8
1
0
POLYLINE
8
1
66
1
40
0.127000
41
0.127000
0
VERTEX
8
1
10
0.117000
20
6.735000
0
VERTEX
8
1
10
0.117000
20
6.435038
0
VERTEX
8
1
10
0.449861
20
6.102177
0
VERTEX
8
1
10
2.345656
20
6.102177
0
VERTEX
8
1
10
3.705605
20
4.742228
0
VERTEX
8
1
10
3.705605
20
-2.915585
0
VERTEX
8
1
10
3.704856
20
-2.916334
0
VERTEX
8
1
10
3.704856
20
-2.992763
0
VERTEX
8
1
10
3.189500
20
-3.508119
0
VERTEX
8
1
10
3.189500
20
-3.722500
0
SEQEND
8
1
0
POLYLINE
8
1
66
1
40
0.127000
41
0.127000
0
VERTEX
8
1
10
4.966000
20
-3.200000
0
VERTEX
8
1
10
4.966000
20
-3.497760
0
SEQEND
8
1
0
POLYLINE
8
1
66
1
40
0.127000
41
0.127000
0
VERTEX
8
1
10
4.959000
20
-3.193000
0
VERTEX
8
1
10
4.959000
20
-3.059278
0
VERTEX
8
1
10
4.862432
20
-2.962710
0
VERTEX
8
1
10
4.847955
20
-2.977187
0
VERTEX
8
1
10
4.847955
20
-3.081955
0
VERTEX
8
1
10
4.847955
20
-3.406687
0
VERTEX
8
1
10
4.894604
20
-3.453336
0
SEQEND
8
1
0
POLYLINE
8
1
66
1
40
0.203200
41
0.203200
0
VERTEX
8
1
10
4.966000
20
-3.200000
0
VERTEX
8
1
10
4.959000
20
-3.193000
0
VERTEX
8
1
10
4.847955
20
-3.081955
0
VERTEX
8
1
10
4.819000
20
-3.053000
0
VERTEX
8
1
10
4.819000
20
-3.352088
0
SEQEND
8
1
0
POLYLINE
8
1
66
1
40
0.177800
41
0.177800
0
VERTEX
8
1
10
-9.041000
20
-3.468000
0
VERTEX
8
1
10
-8.990000
20
-3.417000
0
VERTEX
8
1
10
-8.990000
20
-2.577000
0
SEQEND
8
1
0
POLYLINE
8
1
66
1
40
0.177800
41
0.177800
0
VERTEX
8
1
10
8.961000
20
-3.468000
0
VERTEX
8
1
10
8.907741
20
-3.414741
0
VERTEX
8
1
10
8.907741
20
-2.578741
0
VERTEX
8
1
10
8.906000
20
-2.577000
0
SEQEND
8
1
0
POLYLINE
8
1
66
1
40
0.127000
41
0.127000
0
VERTEX
8
1
10
-3.186000
20
2.938000
0
VERTEX
8
1
10
-3.183723
20
2.935723
0
VERTEX
8
1
10
-3.183723
20
-3.159820
0
VERTEX
8
1
10
-2.894417
20
-3.449126
0
VERTEX
8
1
10
-2.894417
20
-3.779844
0
VERTEX
8
1
10
-2.895000
20
-3.780427
0
VERTEX
8
1
10
-2.887000
20
-3.780427
0
SEQEND
8
1
0
POLYLINE
8
1
66
1
40
0.127000
41
0.127000
0
VERTEX
8
1
10
-3.433000
20
2.935000
0
VERTEX
8
1
10
-3.433000
20
-3.239917
0
VERTEX
8
1
10
-3.134025
20
-3.538892
0
VERTEX
8
1
10
-3.134025
20
-3.770452
0
VERTEX
8
1
10
-3.142000
20
-3.778427
0
SEQEND
8
1
0
POLYLINE
8
1
66
1
40
0.127000
41
0.127000
0
VERTEX
8
1
10
-3.692000
20
2.939000
0
VERTEX
8
1
10
-3.693598
20
2.937402
0
VERTEX
8
1
10
-3.693598
20
-3.310806
0
VERTEX
8
1
10
-3.401000
20
-3.603404
0
VERTEX
8
1
10
-3.401000
20
-3.774427
0
SEQEND
8
1
0
POLYLINE
8
1
66
1
40
0.127000
41
0.127000
0
VERTEX
8
1
10
-3.942000
20
2.940000
0
VERTEX
8
1
10
-3.942492
20
2.939508
0
VERTEX
8
1
10
-3.942492
20
-3.395511
0
VERTEX
8
1
10
-3.651000
20
-3.687003
0
VERTEX
8
1
10
-3.651000
20
-3.773427
0
SEQEND
8
1
0
POLYLINE
8
1
66
1
40
0.127000
41
0.127000
0
VERTEX
8
1
10
-4.435000
20
2.940000
0
VERTEX
8
1
10
-4.304391
20
2.940000
0
VERTEX
8
1
10
-4.185539
20
2.821148
0
VERTEX
8
1
10
-4.185539
20
-3.523355
0
VERTEX
8
1
10
-3.925894
20
-3.783000
0
VERTEX
8
1
10
-3.923000
20
-3.783000
0
SEQEND
8
1
0
POLYLINE
8
1
66
1
40
0.127000
41
0.127000
0
VERTEX
8
1
10
-2.144500
20
-3.723500
0
VERTEX
8
1
10
-2.144500
20
-3.851058
0
VERTEX
8
1
10
-2.511870
20
-4.218428
0
VERTEX
8
1
10
-9.102925
20
-4.218428
0
VERTEX
8
1
10
-9.459682
20
-3.861671
0
VERTEX
8
1
10
-9.459682
20
3.161253
0
VERTEX
8
1
10
-8.409935
20
4.211000
0
VERTEX
8
1
10
-5.770964
20
4.211000
0
VERTEX
8
1
10
-5.420546
20
4.561418
0
VERTEX
8
1
10
-5.420546
20
4.877344
0
VERTEX
8
1
10
-5.420000
20
4.877890
0
VERTEX
8
1
10
-5.420000
20
4.939000
0
SEQEND
8
1
0
POLYLINE
8
1
66
1
40
0.127000
41
0.127000
0
VERTEX
8
1
10
0.337000
20
-2.819000
0
VERTEX
8
1
10
0.337000
20
-2.914000
0
VERTEX
8
1
10
0.149000
20
-3.102000
0
VERTEX
8
1
10
0.149000
20
-3.245000
0
VERTEX
8
1
10
0.148000
20
-3.246000
0
SEQEND
8
1
0
POLYLINE
8
1
66
1
40
0.127000
41
0.127000
0
VERTEX
8
1
10
2.681500
20
-3.722500
0
VERTEX
8
1
10
2.682847
20
-3.721153
0
VERTEX
8
1
10
2.682847
20
-3.368476
0
VERTEX
8
1
10
3.239203
20
-2.812120
0
VERTEX
8
1
10
3.239203
20
4.559361
0
VERTEX
8
1
10
2.153389
20
5.645175
0
VERTEX
8
1
10
0.260567
20
5.645175
0
VERTEX
8
1
10
-0.391000
20
6.296742
0
VERTEX
8
1
10
-0.391000
20
6.735000
0
SEQEND
8
1
0
POLYLINE
8
1
66
1
40
0.203200
41
0.203200
0
VERTEX
8
1
10
-5.166000
20
5.174000
0
VERTEX
8
1
10
-5.166000
20
5.377000
0
SEQEND
8
1
0
POLYLINE
8
1
66
1
40
0.203200
41
0.203200
0
VERTEX
8
1
10
-4.912000
20
5.377000
0
VERTEX
8
1
10
-4.912924
20
5.376076
0
VERTEX
8
1
10
-4.912924
20
5.175924
0
VERTEX
8
1
10
-4.912000
20
5.175000
0
SEQEND
8
1
0
POLYLINE
8
1
66
1
40
0.127000
41
0.127000
0
VERTEX
8
1
10
-1.128500
20
-8.549500
0
VERTEX
8
1
10
-1.128500
20
-6.985516
0
VERTEX
8
1
10
-2.889000
20
-5.225016
0
VERTEX
8
1
10
-2.889000
20
-4.670427
0
SEQEND
8
1
0
POLYLINE
8
1
66
1
40
0.127000
41
0.127000
0
VERTEX
8
1
10
6.170000
20
-4.129714
0
VERTEX
8
1
10
6.170000
20
-3.976000
0
VERTEX
8
1
10
6.293000
20
-3.853000
0
SEQEND
8
1
0
POLYLINE
8
1
66
1
40
0.127000
41
0.127000
0
VERTEX
8
1
10
-2.644300
20
-3.122300
0
VERTEX
8
1
10
-2.609844
20
-3.087844
0
VERTEX
8
1
10
-2.599382
20
-3.087844
0
VERTEX
8
1
10
-2.568156
20
-3.087844
0
VERTEX
8
1
10
-2.475000
20
-3.181000
0
SEQEND
8
1
0
POLYLINE
8
1
66
1
40
0.127000
41
0.127000
0
VERTEX
8
1
10
-2.392000
20
-3.246000
0
VERTEX
8
1
10
-2.392000
20
-3.192995
0
VERTEX
8
1
10
-2.649395
20
-2.935600
0
VERTEX
8
1
10
-2.664952
20
-2.951157
0
VERTEX
8
1
10
-2.664952
20
-3.101648
0
VERTEX
8
1
10
-2.644300
20
-3.122300
0
VERTEX
8
1
10
-2.552216
20
-3.214384
0
SEQEND
8
1
0
POLYLINE
8
1
66
1
40
0.177800
41
0.177800
0
VERTEX
8
1
10
-6.607000
20
-3.878000
0
VERTEX
8
1
10
-6.914869
20
-3.570131
0
VERTEX
8
1
10
-6.914869
20
-3.570106
0
VERTEX
8
1
10
-7.011751
20
-3.473224
0
VERTEX
8
1
10
-7.148777
20
-3.473224
0
VERTEX
8
1
10
-7.154001
20
-3.468000
0
VERTEX
8
1
10
-7.291000
20
-3.468000
0
SEQEND
8
1
0
POLYLINE
8
1
66
1
40
0.203200
41
0.203200
0
VERTEX
8
1
10
-4.562500
20
3.820500
0
VERTEX
8
1
10
-4.791500
20
4.049500
0
VERTEX
8
1
10
-4.792500
20
4.049500
0
SEQEND
8
1
0
POLYLINE
8
1
66
1
40
0.127000
41
0.127000
0
VERTEX
8
1
10
-0.899000
20
6.735000
0
VERTEX
8
1
10
-0.903119
20
6.730881
0
VERTEX
8
1
10
-0.901662
20
6.729424
0
VERTEX
8
1
10
-0.901662
20
6.418326
0
VERTEX
8
1
10
-0.961767
20
6.358221
0
VERTEX
8
1
10
-0.961767
20
4.345353
0
VERTEX
8
1
10
-0.773260
20
4.156846
0
VERTEX
8
1
10
0.981265
20
4.156846
0
VERTEX
8
1
10
1.147362
20
4.322943
0
VERTEX
8
1
10
2.012701
20
4.322943
0
VERTEX
8
1
10
2.772470
20
3.563174
0
VERTEX
8
1
10
2.772470
20
-2.632557
0
VERTEX
8
1
10
2.173500
20
-3.231527
0
VERTEX
8
1
10
2.173500
20
-3.722500
0
SEQEND
8
1
0
POLYLINE
8
1
66
1
40
0.127000
41
0.127000
0
VERTEX
8
1
10
1.971000
20
3.555000
0
VERTEX
8
1
10
2.394288
20
3.555000
0
VERTEX
8
1
10
2.539308
20
3.409980
0
VERTEX
8
1
10
2.539308
20
-1.916441
0
VERTEX
8
1
10
2.537687
20
-1.918062
0
VERTEX
8
1
10
2.537687
20
-2.544192
0
VERTEX
8
1
10
2.164519
20
-2.917360
0
VERTEX
8
1
10
1.874301
20
-2.917360
0
VERTEX
8
1
10
1.674100
20
-3.117561
0
VERTEX
8
1
10
1.674100
20
-3.243900
0
VERTEX
8
1
10
1.672000
20
-3.246000
0
SEQEND
8
1
0
POLYLINE
8
1
66
1
40
0.127000
41
0.127000
0
VERTEX
8
1
10
7.001000
20
-8.319000
0
VERTEX
8
1
10
7.001000
20
-8.440999
0
VERTEX
8
1
10
6.628360
20
-8.813639
0
VERTEX
8
1
10
0.837087
20
-8.813639
0
VERTEX
8
1
10
0.649500
20
-8.626052
0
VERTEX
8
1
10
0.649500
20
-8.549500
0
SEQEND
8
1
0
POLYLINE
8
1
66
1
40
0.127000
41
0.127000
0
VERTEX
8
1
10
7.264198
20
-6.545802
0
VERTEX
8
1
10
7.264198
20
-6.545801
0
SEQEND
8
1
0
POLYLINE
8
1
66
1
40
0.127000
41
0.127000
0
VERTEX
8
1
10
7.264198
20
-6.545802
0
VERTEX
8
1
10
7.264198
20
-6.545801
0
SEQEND
8
1
0
POLYLINE
8
1
66
1
40
0.127000
41
0.127000
0
VERTEX
8
1
10
5.985000
20
-8.319000
0
VERTEX
8
1
10
5.985000
20
-8.414000
0
VERTEX
8
1
10
5.821000
20
-8.578000
0
VERTEX
8
1
10
4.925579
20
-8.578000
0
VERTEX
8
1
10
4.642466
20
-8.294887
0
VERTEX
8
1
10
4.460113
20
-8.294887
0
VERTEX
8
1
10
4.459500
20
-8.295500
0
SEQEND
8
1
0
POLYLINE
8
1
66
1
40
0.127000
41
0.127000
0
VERTEX
8
1
10
6.747000
20
-8.319000
0
VERTEX
8
1
10
6.747000
20
-7.970917
0
VERTEX
8
1
10
6.411282
20
-7.635199
0
VERTEX
8
1
10
4.800579
20
-7.635199
0
VERTEX
8
1
10
4.698880
20
-7.533500
0
VERTEX
8
1
10
4.459500
20
-7.533500
0
SEQEND
8
1
0
POLYLINE
8
1
66
1
40
0.127000
41
0.127000
0
VERTEX
8
1
10
4.459500
20
-7.787500
0
VERTEX
8
1
10
4.462859
20
-7.790859
0
VERTEX
8
1
10
4.616536
20
-7.790859
0
VERTEX
8
1
10
4.668262
20
-7.842585
0
VERTEX
8
1
10
6.269291
20
-7.842585
0
VERTEX
8
1
10
6.493709
20
-8.067003
0
VERTEX
8
1
10
6.493709
20
-8.318291
0
VERTEX
8
1
10
6.493000
20
-8.319000
0
SEQEND
8
1
0
POLYLINE
8
1
66
1
40
0.127000
41
0.127000
0
VERTEX
8
1
10
6.239000
20
-8.319000
0
VERTEX
8
1
10
6.239000
20
-8.162488
0
VERTEX
8
1
10
6.118012
20
-8.041500
0
VERTEX
8
1
10
4.459500
20
-8.041500
0
SEQEND
8
1
0
POLYLINE
8
1
66
1
40
0.127000
41
0.127000
0
VERTEX
8
1
10
6.172523
20
-3.504123
0
VERTEX
8
1
10
6.170000
20
-3.506646
0
VERTEX
8
1
10
6.170000
20
-3.976000
0
SEQEND
8
1
0
POLYLINE
8
1
66
1
40
0.127000
41
0.127000
0
VERTEX
8
1
10
-2.652500
20
-8.549500
0
VERTEX
8
1
10
-2.652500
20
-8.857981
0
SEQEND
8
1
0
POLYLINE
8
1
66
1
40
0.127000
41
0.127000
0
VERTEX
8
1
10
-2.652500
20
-8.549500
0
VERTEX
8
1
10
-2.652500
20
-8.194500
0
SEQEND
8
1
0
POLYLINE
8
1
66
1
40
0.127000
41
0.127000
0
VERTEX
8
1
10
1.586000
20
3.981000
0
VERTEX
8
1
10
1.991573
20
3.981000
0
VERTEX
8
1
10
2.164592
20
3.807981
0
VERTEX
8
1
10
1.517395
20
3.807981
0
VERTEX
8
1
10
1.516000
20
3.809376
0
VERTEX
8
1
10
1.226461
20
3.809376
0
SEQEND
8
1
0
POLYLINE
8
1
66
1
40
0.127000
41
0.127000
0
VERTEX
8
1
10
1.235370
20
3.292370
0
VERTEX
8
1
10
2.284370
20
3.292370
0
VERTEX
8
1
10
2.169690
20
3.177690
0
VERTEX
8
1
10
1.598310
20
3.177690
0
SEQEND
8
1
0
POLYLINE
8
1
66
1
40
0.127000
41
0.127000
0
VERTEX
8
1
10
-3.923000
20
-4.660000
0
VERTEX
8
1
10
-3.923000
20
-5.507136
0
VERTEX
8
1
10
-2.145008
20
-7.285128
0
VERTEX
8
1
10
-2.145008
20
-8.549008
0
VERTEX
8
1
10
-2.145500
20
-8.549500
0
VERTEX
8
1
10
-2.144500
20
-8.549500
0
SEQEND
8
1
0
POLYLINE
8
1
66
1
40
0.127000
41
0.127000
0
VERTEX
8
1
10
-4.912000
20
4.939000
0
VERTEX
8
1
10
-4.912000
20
4.841733
0
VERTEX
8
1
10
-4.132948
20
4.062681
0
VERTEX
8
1
10
-3.577063
20
4.062681
0
VERTEX
8
1
10
-3.436000
20
3.921618
0
VERTEX
8
1
10
-3.436000
20
3.830000
0
SEQEND
8
1
0
POLYLINE
8
1
66
1
40
0.127000
41
0.127000
0
VERTEX
8
1
10
8.906000
20
-2.203000
0
VERTEX
8
1
10
8.902680
20
-2.203000
0
VERTEX
8
1
10
8.494500
20
-2.611180
0
VERTEX
8
1
10
8.494500
20
-3.525266
0
VERTEX
8
1
10
8.783234
20
-3.814000
0
VERTEX
8
1
10
8.780000
20
-3.814000
0
SEQEND
8
1
0
POLYLINE
8
1
66
1
40
0.127000
41
0.127000
0
VERTEX
8
1
10
-1.128500
20
-3.723500
0
VERTEX
8
1
10
-1.128500
20
-4.005983
0
SEQEND
8
1
0
POLYLINE
8
1
66
1
40
0.127000
41
0.127000
0
VERTEX
8
1
10
-3.691000
20
3.834000
0
VERTEX
8
1
10
-3.694001
20
3.834000
0
VERTEX
8
1
10
-3.696246
20
3.831755
0
VERTEX
8
1
10
-4.155684
20
3.831755
0
VERTEX
8
1
10
-5.166000
20
4.842071
0
VERTEX
8
1
10
-5.166000
20
4.939000
0
SEQEND
8
1
0
POLYLINE
8
1
66
1
40
0.127000
41
0.127000
0
VERTEX
8
1
10
-0.468000
20
-2.820000
0
VERTEX
8
1
10
-0.468000
20
-2.979908
0
VERTEX
8
1
10
-0.614000
20
-3.125908
0
VERTEX
8
1
10
-0.614000
20
-3.246000
0
SEQEND
8
1
0
POLYLINE
8
1
66
1
40
0.203200
41
0.203200
0
VERTEX
8
1
10
4.459500
20
-4.231500
0
VERTEX
8
1
10
4.205500
20
-4.231500
0
SEQEND
8
1
0
POLYLINE
8
1
66
1
40
0.127000
41
0.127000
0
VERTEX
8
1
10
4.205500
20
-4.231500
0
VERTEX
8
1
10
-0.554958
20
-4.231500
0
SEQEND
8
1
0
POLYLINE
8
1
66
1
40
0.127000
41
0.127000
0
VERTEX
8
1
10
1.598310
20
3.177690
0
VERTEX
8
1
10
1.664897
20
3.111103
0
VERTEX
8
1
10
1.804592
20
3.111103
0
VERTEX
8
1
10
1.670489
20
2.977000
0
VERTEX
8
1
10
1.527229
20
2.977000
0
VERTEX
8
1
10
1.368289
20
3.135940
0
SEQEND
8
1
0
POLYLINE
8
1
66
1
40
0.127000
41
0.127000
0
VERTEX
8
1
10
1.570000
20
3.206000
0
VERTEX
8
1
10
1.598310
20
3.177690
0
SEQEND
8
1
0
POLYLINE
8
1
66
1
40
0.127000
41
0.127000
0
VERTEX
8
1
10
6.976243
20
3.109282
0
VERTEX
8
1
10
6.976243
20
3.024108
0
VERTEX
8
1
10
7.084892
20
3.024108
0
SEQEND
8
1
0
POLYLINE
8
1
66
1
40
0.127000
41
0.127000
0
VERTEX
8
1
10
7.380000
20
2.873000
0
VERTEX
8
1
10
7.375500
20
2.877500
0
SEQEND
8
1
0
POLYLINE
8
1
66
1
40
0.127000
41
0.127000
0
VERTEX
8
1
10
7.085000
20
3.024000
0
VERTEX
8
1
10
7.202382
20
2.906618
0
VERTEX
8
1
10
7.202382
20
2.877500
0
VERTEX
8
1
10
7.202382
20
2.779229
0
SEQEND
8
1
0
POLYLINE
8
1
66
1
40
0.127000
41
0.127000
0
VERTEX
8
1
10
7.375500
20
2.877500
0
VERTEX
8
1
10
7.202382
20
2.877500
0
VERTEX
8
1
10
6.773500
20
2.877500
0
VERTEX
8
1
10
6.773500
20
2.982500
0
VERTEX
8
1
10
6.815000
20
3.024000
0
VERTEX
8
1
10
7.085000
20
3.024000
0
SEQEND
8
1
0
POLYLINE
8
1
66
1
40
0.127000
41
0.127000
0
VERTEX
8
1
10
7.996000
20
3.657000
0
VERTEX
8
1
10
7.829000
20
3.824000
0
VERTEX
8
1
10
7.825000
20
3.824000
0
VERTEX
8
1
10
7.684219
20
3.964781
0
VERTEX
8
1
10
7.995842
20
3.964781
0
VERTEX
8
1
10
8.000848
20
3.959774
0
VERTEX
8
1
10
8.013354
20
3.947269
0
SEQEND
8
1
0
POLYLINE
8
1
66
1
40
0.127000
41
0.127000
0
VERTEX
8
1
10
8.057000
20
3.494000
0
VERTEX
8
1
10
7.994648
20
3.494000
0
VERTEX
8
1
10
7.516362
20
3.972286
0
VERTEX
8
1
10
7.658956
20
3.972286
0
VERTEX
8
1
10
7.734670
20
4.048000
0
VERTEX
8
1
10
7.986000
20
4.048000
0
VERTEX
8
1
10
8.037537
20
3.996463
0
VERTEX
8
1
10
8.000848
20
3.959774
0
VERTEX
8
1
10
7.996000
20
3.954926
0
VERTEX
8
1
10
7.996000
20
3.657000
0
SEQEND
8
1
0
POLYLINE
8
1
66
1
40
0.127000
41
0.127000
0
VERTEX
8
1
10
-5.411000
20
3.676000
0
VERTEX
8
1
10
-5.516779
20
3.781779
0
VERTEX
8
1
10
-5.516779
20
3.935167
0
VERTEX
8
1
10
-5.509000
20
3.942946
0
SEQEND
8
1
0
POLYLINE
8
1
66
1
40
0.127000
41
0.127000
0
VERTEX
8
1
10
-5.516779
20
3.781779
0
VERTEX
8
1
10
-5.541632
20
3.806632
0
VERTEX
8
1
10
-5.783874
20
3.806632
0
VERTEX
8
1
10
-5.783874
20
3.644631
0
VERTEX
8
1
10
-5.654906
20
3.515663
0
VERTEX
8
1
10
-5.135337
20
3.515663
0
VERTEX
8
1
10
-5.135337
20
3.677845
0
VERTEX
8
1
10
-5.363228
20
3.905736
0
SEQEND
8
1
0
POLYLINE
8
1
66
1
40
0.127000
41
0.127000
0
VERTEX
8
1
10
-5.412000
20
2.804000
0
VERTEX
8
1
10
-5.240881
20
2.804000
0
VERTEX
8
1
10
-5.163019
20
2.881862
0
SEQEND
8
1
0
POLYLINE
8
1
66
1
40
0.127000
41
0.127000
0
VERTEX
8
1
10
-5.253559
20
2.972402
0
VERTEX
8
1
10
-5.580402
20
2.972402
0
VERTEX
8
1
10
-5.630598
20
2.972402
0
VERTEX
8
1
10
-5.739735
20
2.863265
0
SEQEND
8
1
0
POLYLINE
8
1
66
1
40
0.127000
41
0.127000
0
VERTEX
8
1
10
-5.580402
20
2.972402
0
VERTEX
8
1
10
-5.609707
20
3.001707
0
VERTEX
8
1
10
-5.758120
20
3.001707
0
VERTEX
8
1
10
-5.758120
20
2.881650
0
VERTEX
8
1
10
-5.739735
20
2.863265
0
VERTEX
8
1
10
-5.437916
20
2.561446
0
VERTEX
8
1
10
-5.375184
20
2.561446
0
VERTEX
8
1
10
-5.162664
20
2.773966
0
VERTEX
8
1
10
-5.162664
20
2.881507
0
VERTEX
8
1
10
-5.163019
20
2.881862
0
SEQEND
8
1
0
POLYLINE
8
1
66
1
40
0.127000
41
0.127000
0
VERTEX
8
1
10
-5.253559
20
2.972402
0
VERTEX
8
1
10
-5.258681
20
2.977524
0
SEQEND
8
1
0
POLYLINE
8
1
66
1
40
0.127000
41
0.127000
0
VERTEX
8
1
10
-5.933000
20
2.678000
0
VERTEX
8
1
10
-5.933000
20
3.004213
0
VERTEX
8
1
10
-5.132889
20
3.004213
0
VERTEX
8
1
10
-5.101078
20
2.972402
0
VERTEX
8
1
10
-5.086778
20
2.958102
0
VERTEX
8
1
10
-5.082648
20
2.953972
0
VERTEX
8
1
10
-5.135864
20
2.900756
0
VERTEX
8
1
10
-5.144125
20
2.900756
0
VERTEX
8
1
10
-5.181913
20
2.900756
0
VERTEX
8
1
10
-5.508756
20
2.900756
0
VERTEX
8
1
10
-5.560265
20
2.900756
0
SEQEND
8
1
0
POLYLINE
8
1
66
1
40
0.127000
41
0.127000
0
VERTEX
8
1
10
-5.163019
20
2.881862
0
VERTEX
8
1
10
-5.144125
20
2.900756
0
VERTEX
8
1
10
-5.086778
20
2.958102
0
VERTEX
8
1
10
-5.072479
20
2.972402
0
VERTEX
8
1
10
-5.101078
20
2.972402
0
VERTEX
8
1
10
-5.253559
20
2.972402
0
SEQEND
8
1
0
POLYLINE
8
1
66
1
40
0.127000
41
0.127000
0
VERTEX
8
1
10
-5.412000
20
2.804000
0
VERTEX
8
1
10
-5.508756
20
2.900756
0
VERTEX
8
1
10
-5.580402
20
2.972402
0
SEQEND
8
1
0
POLYLINE
8
1
66
1
40
0.127000
41
0.127000
0
VERTEX
8
1
10
-5.163019
20
2.881862
0
VERTEX
8
1
10
-5.181913
20
2.900756
0
VERTEX
8
1
10
-5.253559
20
2.972402
0
SEQEND
8
1
0
POLYLINE
8
1
66
1
40
0.127000
41
0.127000
0
VERTEX
8
1
10
-8.123000
20
-3.919000
0
VERTEX
8
1
10
-8.247000
20
-3.795000
0
VERTEX
8
1
10
-8.422000
20
-3.795000
0
VERTEX
8
1
10
-8.302279
20
-3.675279
0
VERTEX
8
1
10
-8.100771
20
-3.675279
0
VERTEX
8
1
10
-7.906794
20
-3.869256
0
SEQEND
8
1
0
POLYLINE
8
1
66
1
40
0.127000
41
0.127000
0
VERTEX
8
1
10
-8.127000
20
-4.620000
0
VERTEX
8
1
10
-8.127000
20
-4.731439
0
VERTEX
8
1
10
-8.262228
20
-4.866667
0
VERTEX
8
1
10
-8.262228
20
-4.755228
0
VERTEX
8
1
10
-8.262228
20
-4.754268
0
VERTEX
8
1
10
-8.339809
20
-4.676687
0
SEQEND
8
1
0
POLYLINE
8
1
66
1
40
0.127000
41
0.127000
0
VERTEX
8
1
10
-8.127000
20
-4.620000
0
VERTEX
8
1
10
-8.262228
20
-4.755228
0
VERTEX
8
1
10
-8.434062
20
-4.927062
0
VERTEX
8
1
10
-8.158062
20
-4.927062
0
VERTEX
8
1
10
-7.881000
20
-4.650000
0
VERTEX
8
1
10
-7.881000
20
-4.475000
0
VERTEX
8
1
10
-8.487000
20
-4.475000
0
SEQEND
8
1
0
POLYLINE
8
1
66
1
40
0.127000
41
0.127000
0
VERTEX
8
1
10
8.548000
20
-4.119000
0
VERTEX
8
1
10
8.548000
20
-4.341000
0
VERTEX
8
1
10
8.578000
20
-4.371000
0
VERTEX
8
1
10
8.653181
20
-4.371000
0
SEQEND
8
1
0
POLYLINE
8
1
66
1
40
0.127000
41
0.127000
0
VERTEX
8
1
10
8.780000
20
-4.068000
0
VERTEX
8
1
10
8.653181
20
-4.194819
0
VERTEX
8
1
10
8.653181
20
-4.371000
0
VERTEX
8
1
10
8.653181
20
-4.403526
0
VERTEX
8
1
10
8.463526
20
-4.403526
0
VERTEX
8
1
10
8.463526
20
-4.167526
0
VERTEX
8
1
10
8.415000
20
-4.119000
0
SEQEND
8
1
0
POLYLINE
8
1
66
1
40
0.127000
41
0.127000
0
VERTEX
8
1
10
5.805000
20
6.583000
0
VERTEX
8
1
10
5.971001
20
6.583000
0
VERTEX
8
1
10
7.061148
20
5.492853
0
VERTEX
8
1
10
7.061148
20
4.063675
0
VERTEX
8
1
10
8.201638
20
2.923185
0
VERTEX
8
1
10
8.201638
20
-6.110638
0
VERTEX
8
1
10
8.965000
20
-6.874000
0
SEQEND
8
1
0
POLYLINE
8
1
66
1
40
0.127000
41
0.127000
0
VERTEX
8
1
10
8.412000
20
-3.861000
0
VERTEX
8
1
10
8.734306
20
-3.861000
0
VERTEX
8
1
10
8.738485
20
-3.856821
0
VERTEX
8
1
10
8.738485
20
-3.855515
0
VERTEX
8
1
10
8.780000
20
-3.814000
0
SEQEND
8
1
0
POLYLINE
8
1
66
1
40
0.127000
41
0.127000
0
VERTEX
8
1
10
1.971000
20
5.401000
0
VERTEX
8
1
10
2.037491
20
5.401000
0
VERTEX
8
1
10
2.288342
20
5.150149
0
VERTEX
8
1
10
2.124698
20
5.150149
0
VERTEX
8
1
10
2.034601
20
5.240246
0
SEQEND
8
1
0
POLYLINE
8
1
66
1
40
0.127000
41
0.127000
0
VERTEX
8
1
10
-2.075000
20
5.401000
0
VERTEX
8
1
10
-2.081000
20
5.395000
0
SEQEND
8
1
0
POLYLINE
8
1
66
1
40
0.127000
41
0.127000
0
VERTEX
8
1
10
-2.215000
20
5.660692
0
VERTEX
8
1
10
-2.215000
20
5.372622
0
VERTEX
8
1
10
-2.215000
20
5.343926
0
VERTEX
8
1
10
-2.317486
20
5.241440
0
VERTEX
8
1
10
-2.298671
20
5.222625
0
VERTEX
8
1
10
-2.120558
20
5.222625
0
SEQEND
8
1
0
POLYLINE
8
1
66
1
40
0.127000
41
0.127000
0
VERTEX
8
1
10
-2.081000
20
5.395000
0
VERTEX
8
1
10
-2.159189
20
5.316811
0
VERTEX
8
1
10
-2.215000
20
5.372622
0
VERTEX
8
1
10
-2.297775
20
5.455397
0
VERTEX
8
1
10
-2.297775
20
5.660692
0
VERTEX
8
1
10
-2.215000
20
5.660692
0
VERTEX
8
1
10
-2.063223
20
5.660692
0
VERTEX
8
1
10
-1.856217
20
5.453686
0
VERTEX
8
1
10
-1.856217
20
5.596419
0
VERTEX
8
1
10
-1.922160
20
5.662362
0
SEQEND
8
1
0
POLYLINE
8
1
66
1
40
0.127000
41
0.127000
0
VERTEX
8
1
10
-2.074000
20
5.388000
0
VERTEX
8
1
10
-2.074000
20
5.267633
0
VERTEX
8
1
10
-2.030247
20
5.223880
0
VERTEX
8
1
10
-1.897289
20
5.223880
0
SEQEND
8
1
0
POLYLINE
8
1
66
1
40
0.127000
41
0.127000
0
VERTEX
8
1
10
-2.081000
20
5.395000
0
VERTEX
8
1
10
-2.074000
20
5.388000
0
VERTEX
8
1
10
-1.980585
20
5.294585
0
VERTEX
8
1
10
-1.818317
20
5.294585
0
VERTEX
8
1
10
-1.802452
20
5.294585
0
VERTEX
8
1
10
-1.802452
20
5.213710
0
VERTEX
8
1
10
-1.927440
20
5.088722
0
SEQEND
8
1
0
POLYLINE
8
1
66
1
40
0.127000
41
0.127000
0
VERTEX
8
1
10
7.168000
20
-4.064000
0
VERTEX
8
1
10
7.017543
20
-4.064000
0
SEQEND
8
1
0
POLYLINE
8
1
66
1
40
0.127000
41
0.127000
0
VERTEX
8
1
10
6.041462
20
-3.160788
0
VERTEX
8
1
10
5.960904
20
-3.160788
0
VERTEX
8
1
10
5.921692
20
-3.200000
0
SEQEND
8
1
0
POLYLINE
8
1
66
1
40
0.127000
41
0.127000
0
VERTEX
8
1
10
5.916000
20
-3.200000
0
VERTEX
8
1
10
5.921692
20
-3.200000
0
VERTEX
8
1
10
6.002250
20
-3.200000
0
VERTEX
8
1
10
6.041462
20
-3.160788
0
SEQEND
8
1
0
POLYLINE
8
1
66
1
40
0.127000
41
0.127000
0
VERTEX
8
1
10
-1.661000
20
6.735000
0
VERTEX
8
1
10
-1.720304
20
6.675696
0
VERTEX
8
1
10
-2.014324
20
6.381676
0
VERTEX
8
1
10
-1.906673
20
6.381676
0
VERTEX
8
1
10
-1.742679
20
6.545670
0
SEQEND
8
1
0
POLYLINE
8
1
66
1
40
0.127000
41
0.127000
0
VERTEX
8
1
10
-4.658000
20
5.377000
0
VERTEX
8
1
10
-4.658000
20
4.942533
0
VERTEX
8
1
10
-4.654467
20
4.939000
0
VERTEX
8
1
10
-4.658000
20
4.939000
0
SEQEND
8
1
0
POLYLINE
8
1
66
1
40
0.127000
41
0.127000
0
VERTEX
8
1
10
1.564000
20
3.981000
0
VERTEX
8
1
10
1.312000
20
3.981000
0
VERTEX
8
1
10
1.190000
20
3.859000
0
VERTEX
8
1
10
1.879098
20
3.859000
0
SEQEND
8
1
0
POLYLINE
8
1
66
1
40
0.127000
41
0.127000
0
VERTEX
8
1
10
-6.353000
20
-3.878000
0
VERTEX
8
1
10
-6.199514
20
-3.724514
0
VERTEX
8
1
10
-6.199514
20
-3.664525
0
SEQEND
8
1
0
POLYLINE
8
1
66
1
40
0.127000
41
0.127000
0
VERTEX
8
1
10
7.448121
20
-6.729725
0
VERTEX
8
1
10
7.264198
20
-6.545801
0
SEQEND
8
1
0
POLYLINE
8
1
66
1
40
0.127000
41
0.127000
0
VERTEX
8
1
10
8.513000
20
-8.169000
0
VERTEX
8
1
10
8.513000
20
-7.794603
0
VERTEX
8
1
10
7.448121
20
-6.729725
0
SEQEND
8
1
0
POLYLINE
8
1
66
1
40
0.127000
41
0.127000
0
VERTEX
8
1
10
7.205191
20
-4.026809
0
VERTEX
8
1
10
7.205191
20
-4.125858
0
SEQEND
8
1
0
POLYLINE
8
1
66
1
40
0.127000
41
0.127000
0
VERTEX
8
1
10
7.168000
20
-4.064000
0
VERTEX
8
1
10
7.158499
20
-4.073501
0
VERTEX
8
1
10
7.158499
20
-4.079166
0
VERTEX
8
1
10
7.205191
20
-4.125858
0
SEQEND
8
1
0
POLYLINE
8
1
66
1
40
0.127000
41
0.127000
0
VERTEX
8
1
10
7.205191
20
-4.026809
0
VERTEX
8
1
10
7.168000
20
-4.064000
0
SEQEND
8
1
0
POLYLINE
8
1
66
1
40
0.127000
41
0.127000
0
VERTEX
8
1
10
7.292000
20
-3.940000
0
VERTEX
8
1
10
7.205191
20
-4.026809
0
SEQEND
8
1
0
POLYLINE
8
1
66
1
40
0.127000
41
0.127000
0
VERTEX
8
1
10
-6.353000
20
-3.878000
0
VERTEX
8
1
10
-6.353000
20
-3.920999
0
VERTEX
8
1
10
-6.313071
20
-3.960928
0
VERTEX
8
1
10
-6.019723
20
-3.960928
0
VERTEX
8
1
10
-6.185570
20
-3.795081
0
VERTEX
8
1
10
-6.185570
20
-3.710724
0
VERTEX
8
1
10
-6.185570
20
-3.849018
0
SEQEND
8
1
0
POLYLINE
8
1
66
1
40
0.127000
41
0.127000
0
VERTEX
8
1
10
1.971000
20
5.401000
0
VERTEX
8
1
10
1.959602
20
5.389602
0
VERTEX
8
1
10
1.620576
20
5.389602
0
SEQEND
8
1
0
POLYLINE
8
1
66
1
40
0.127000
41
0.127000
0
VERTEX
8
1
10
1.959602
20
5.389602
0
VERTEX
8
1
10
1.846820
20
5.276820
0
VERTEX
8
1
10
1.846820
20
5.023611
0
VERTEX
8
1
10
1.778541
20
5.091890
0
VERTEX
8
1
10
1.778541
20
5.388595
0
SEQEND
8
1
0
POLYLINE
8
1
66
1
40
0.127000
41
0.127000
0
VERTEX
8
1
10
7.546000
20
-3.940000
0
VERTEX
8
1
10
7.666134
20
-3.940000
0
VERTEX
8
1
10
7.774000
20
-4.047866
0
VERTEX
8
1
10
7.774000
20
-4.116000
0
SEQEND
8
1
0
POLYLINE
8
1
66
1
40
0.127000
41
0.127000
0
VERTEX
8
1
10
8.946000
20
-4.257000
0
VERTEX
8
1
10
8.946000
20
-4.181729
0
VERTEX
8
1
10
8.946000
20
-4.087155
0
SEQEND
8
1
0
POLYLINE
8
1
66
1
40
0.127000
41
0.127000
0
VERTEX
8
1
10
8.653181
20
-4.371000
0
VERTEX
8
1
10
8.756729
20
-4.371000
0
VERTEX
8
1
10
8.946000
20
-4.181729
0
VERTEX
8
1
10
9.004719
20
-4.123010
0
SEQEND
8
1
0
POLYLINE
8
1
66
1
40
0.127000
41
0.127000
0
VERTEX
8
1
10
8.670461
20
-4.068000
0
VERTEX
8
1
10
8.665461
20
-4.073000
0
SEQEND
8
1
0
POLYLINE
8
1
66
1
40
0.127000
41
0.127000
0
VERTEX
8
1
10
8.780000
20
-4.068000
0
VERTEX
8
1
10
8.670461
20
-4.068000
0
VERTEX
8
1
10
8.657748
20
-4.068000
0
VERTEX
8
1
10
8.606748
20
-4.119000
0
VERTEX
8
1
10
8.548000
20
-4.119000
0
SEQEND
8
1
0
POLYLINE
8
1
66
1
40
0.127000
41
0.127000
0
VERTEX
8
1
10
8.415000
20
-4.119000
0
VERTEX
8
1
10
8.543000
20
-4.119000
0
SEQEND
8
1
0
POLYLINE
8
1
66
1
40
0.127000
41
0.127000
0
VERTEX
8
1
10
8.548000
20
-4.119000
0
VERTEX
8
1
10
8.543000
20
-4.119000
0
SEQEND
8
1
0
POLYLINE
8
1
66
1
40
0.127000
41
0.127000
0
VERTEX
8
1
10
9.134000
20
-4.011000
0
VERTEX
8
1
10
9.120105
20
-4.024895
0
VERTEX
8
1
10
8.724543
20
-4.024895
0
VERTEX
8
1
10
8.713566
20
-4.024895
0
VERTEX
8
1
10
8.670461
20
-4.068000
0
VERTEX
8
1
10
8.632230
20
-4.029770
0
VERTEX
8
1
10
8.629001
20
-4.026540
0
VERTEX
8
1
10
8.575272
20
-4.026540
0
SEQEND
8
1
0
POLYLINE
8
1
66
1
40
0.127000
41
0.127000
0
VERTEX
8
1
10
8.543000
20
-4.119000
0
VERTEX
8
1
10
8.632230
20
-4.029770
0
VERTEX
8
1
10
8.638000
20
-4.024000
0
VERTEX
8
1
10
8.723648
20
-4.024000
0
VERTEX
8
1
10
8.724543
20
-4.024895
0
SEQEND
8
1
0
POLYLINE
8
1
66
1
40
0.010160
41
0.010160
0
VERTEX
8
1
10
9.647141
20
-9.087543
0
VERTEX
8
1
10
9.650047
20
-9.084637
0
SEQEND
8
1
0
POLYLINE
8
1
66
1
40
0.127000
41
0.127000
0
VERTEX
8
1
10
7.205191
20
-4.125858
0
VERTEX
8
1
10
7.204000
20
-4.127049
0
VERTEX
8
1
10
7.204000
20
-6.113000
0
SEQEND
8
1
0
POLYLINE
8
1
66
1
40
0.127000
41
0.127000
0
VERTEX
8
1
10
2.427500
20
-3.722500
0
VERTEX
8
1
10
2.427500
20
-3.300675
0
VERTEX
8
1
10
3.010702
20
-2.717473
0
VERTEX
8
1
10
3.010702
20
3.659876
0
VERTEX
8
1
10
2.118707
20
4.551871
0
VERTEX
8
1
10
1.591093
20
4.551871
0
VERTEX
8
1
10
0.727688
20
5.415276
0
VERTEX
8
1
10
0.167318
20
5.415276
0
VERTEX
8
1
10
-0.645000
20
6.227594
0
VERTEX
8
1
10
-0.645000
20
6.735000
0
SEQEND
8
1
0
POLYLINE
8
1
66
1
40
0.127000
41
0.127000
0
VERTEX
8
1
10
-1.153000
20
6.735000
0
VERTEX
8
1
10
-1.153000
20
6.490068
0
VERTEX
8
1
10
-1.288264
20
6.354804
0
VERTEX
8
1
10
-1.288264
20
5.368698
0
VERTEX
8
1
10
-1.925370
20
4.731592
0
VERTEX
8
1
10
-3.864408
20
4.731592
0
VERTEX
8
1
10
-3.918000
20
4.678000
0
SEQEND
8
1
0
POLYLINE
8
1
66
1
40
0.010160
41
0.010160
0
VERTEX
8
1
10
9.650047
20
-9.084637
0
VERTEX
8
1
10
9.647725
20
-9.082315
0
VERTEX
8
1
10
9.647725
20
8.150890
0
VERTEX
8
1
10
9.647141
20
8.151474
0
SEQEND
8
1
0
POLYLINE
8
1
66
1
40
0.127000
41
0.127000
0
VERTEX
8
1
10
-4.571642
20
5.021825
0
VERTEX
8
1
10
-4.654467
20
4.939000
0
SEQEND
8
1
0
POLYLINE
8
1
66
1
40
0.127000
41
0.127000
0
VERTEX
8
1
10
-4.658000
20
5.377000
0
VERTEX
8
1
10
-4.571642
20
5.290642
0
VERTEX
8
1
10
-4.571642
20
5.021825
0
VERTEX
8
1
10
-4.571642
20
4.996744
0
SEQEND
8
1
0
POLYLINE
8
1
66
1
40
0.127000
41
0.127000
0
VERTEX
8
1
10
-4.471000
20
5.580000
0
VERTEX
8
1
10
-4.486702
20
5.564298
0
VERTEX
8
1
10
-4.633000
20
5.418000
0
VERTEX
8
1
10
-4.648554
20
5.418000
0
SEQEND
8
1
0
POLYLINE
8
1
66
1
40
0.127000
41
0.127000
0
VERTEX
8
1
10
-3.941000
20
5.471000
0
VERTEX
8
1
10
-4.050000
20
5.580000
0
VERTEX
8
1
10
-4.471000
20
5.580000
0
VERTEX
8
1
10
-4.486702
20
5.580000
0
VERTEX
8
1
10
-4.486702
20
5.564298
0
VERTEX
8
1
10
-4.486702
20
5.106765
0
VERTEX
8
1
10
-4.571642
20
5.021825
0
SEQEND
8
1
0
POLYLINE
8
1
66
1
40
0.127000
41
0.127000
0
VERTEX
8
1
10
7.546000
20
-3.940000
0
VERTEX
8
1
10
7.548931
20
-3.942931
0
VERTEX
8
1
10
7.548931
20
-4.141068
0
VERTEX
8
1
10
7.448121
20
-4.241878
0
VERTEX
8
1
10
7.448121
20
-6.729725
0
SEQEND
8
1
0
POLYLINE
8
1
66
1
40
0.127000
41
0.127000
0
VERTEX
8
1
10
-3.912000
20
7.420000
0
VERTEX
8
1
10
-5.695000
20
5.637000
0
VERTEX
8
1
10
-5.695000
20
4.827000
0
SEQEND
8
1
0
POLYLINE
8
1
66
1
40
0.127000
41
0.127000
0
VERTEX
8
1
10
6.041462
20
-3.160788
0
VERTEX
8
1
10
6.161778
20
-3.040472
0
VERTEX
8
1
10
6.041462
20
-3.040472
0
SEQEND
8
1
0
POLYLINE
8
1
66
1
40
0.127000
41
0.127000
0
VERTEX
8
1
10
5.891000
20
-2.462000
0
VERTEX
8
1
10
5.891000
20
-2.822000
0
VERTEX
8
1
10
5.891000
20
-3.031031
0
VERTEX
8
1
10
5.891000
20
-3.169308
0
VERTEX
8
1
10
5.921692
20
-3.200000
0
SEQEND
8
1
0
POLYLINE
8
1
66
1
40
0.127000
41
0.127000
0
VERTEX
8
1
10
5.832000
20
-2.763000
0
VERTEX
8
1
10
5.891000
20
-2.822000
0
VERTEX
8
1
10
6.041462
20
-2.972462
0
VERTEX
8
1
10
6.041462
20
-3.040472
0
VERTEX
8
1
10
5.900441
20
-3.040472
0
VERTEX
8
1
10
5.891000
20
-3.031031
0
VERTEX
8
1
10
5.857899
20
-2.997930
0
SEQEND
8
1
0
POLYLINE
8
1
66
1
40
0.127000
41
0.127000
0
VERTEX
8
1
10
5.903000
20
-2.450000
0
VERTEX
8
1
10
5.891000
20
-2.462000
0
SEQEND
8
1
0
POLYLINE
8
1
66
1
40
0.127000
41
0.127000
0
VERTEX
8
1
10
7.264198
20
-6.545801
0
VERTEX
8
1
10
7.255198
20
-6.545801
0
VERTEX
8
1
10
5.901000
20
-5.191603
0
VERTEX
8
1
10
5.901000
20
-3.713000
0
SEQEND
8
1
0
POLYLINE
8
1
66
1
40
0.127000
41
0.127000
0
VERTEX
8
1
10
7.085000
20
3.024000
0
VERTEX
8
1
10
7.084892
20
3.024108
0
VERTEX
8
1
10
6.999718
20
3.109282
0
VERTEX
8
1
10
6.976243
20
3.132757
0
VERTEX
8
1
10
6.920000
20
3.189000
0
SEQEND
8
1
0
POLYLINE
8
1
66
1
40
0.127000
41
0.127000
0
VERTEX
8
1
10
7.380000
20
2.873000
0
VERTEX
8
1
10
7.380000
20
2.971428
0
VERTEX
8
1
10
7.377572
20
2.971428
0
VERTEX
8
1
10
6.920000
20
3.429000
0
VERTEX
8
1
10
6.920000
20
3.189000
0
VERTEX
8
1
10
6.920000
20
3.135282
0
VERTEX
8
1
10
6.894000
20
3.109282
0
VERTEX
8
1
10
6.976243
20
3.109282
0
VERTEX
8
1
10
6.999718
20
3.109282
0
SEQEND
8
1
0
POLYLINE
8
1
66
1
40
0.127000
41
0.127000
0
VERTEX
8
1
10
7.375500
20
2.877500
0
VERTEX
8
1
10
6.992758
20
3.260242
0
VERTEX
8
1
10
6.976243
20
3.260242
0
VERTEX
8
1
10
6.976243
20
3.132757
0
VERTEX
8
1
10
6.976243
20
3.109282
0
SEQEND
8
1
0
POLYLINE
8
1
66
1
40
0.010160
41
0.010160
0
VERTEX
8
1
10
9.634332
20
8.164283
0
VERTEX
8
1
10
9.621166
20
8.177449
0
VERTEX
8
1
10
-9.728476
20
8.177449
0
VERTEX
8
1
10
-9.728476
20
8.164283
0
VERTEX
8
1
10
-9.728476
20
-9.100684
0
VERTEX
8
1
10
9.634000
20
-9.100684
0
VERTEX
8
1
10
9.647141
20
-9.087543
0
SEQEND
8
1
0
POLYLINE
8
1
66
1
40
0.010160
41
0.010160
0
VERTEX
8
1
10
9.634332
20
8.164283
0
VERTEX
8
1
10
9.621166
20
8.177449
0
VERTEX
8
1
10
-9.728476
20
8.177449
0
VERTEX
8
1
10
-9.728476
20
8.164283
0
VERTEX
8
1
10
-9.728476
20
-9.100684
0
VERTEX
8
1
10
9.634000
20
-9.100684
0
VERTEX
8
1
10
9.647141
20
-9.087543
0
VERTEX
8
1
10
9.650047
20
-9.084637
0
SEQEND
8
1
0
POLYLINE
8
1
66
1
40
0.010160
41
0.010160
0
VERTEX
8
1
10
9.634332
20
8.164283
0
VERTEX
8
1
10
9.631615
20
8.167000
0
VERTEX
8
1
10
-9.728476
20
8.167000
0
VERTEX
8
1
10
-9.728476
20
8.164283
0
VERTEX
8
1
10
-9.728476
20
-9.100684
0
VERTEX
8
1
10
9.634000
20
-9.100684
0
VERTEX
8
1
10
9.647141
20
-9.087543
0
SEQEND
8
1
0
POLYLINE
8
1
66
1
40
0.127000
41
0.127000
0
VERTEX
8
1
10
6.920000
20
3.189000
0
VERTEX
8
1
10
5.834349
20
4.274651
0
VERTEX
8
1
10
5.834349
20
5.242901
0
VERTEX
8
1
10
4.597370
20
6.479880
0
VERTEX
8
1
10
4.597370
20
7.596236
0
VERTEX
8
1
10
4.257168
20
7.936438
0
VERTEX
8
1
10
4.156544
20
7.936438
0
VERTEX
8
1
10
4.153889
20
7.939093
0
VERTEX
8
1
10
-4.301548
20
7.939093
0
SEQEND
8
1
0
POLYLINE
8
1
66
1
40
0.127000
41
0.127000
0
VERTEX
8
1
10
-1.407000
20
6.988000
0
VERTEX
8
1
10
-1.407000
20
7.096373
0
VERTEX
8
1
10
-1.533181
20
7.222554
0
VERTEX
8
1
10
-1.821464
20
7.222554
0
VERTEX
8
1
10
-2.870655
20
6.173363
0
VERTEX
8
1
10
-4.778276
20
6.173363
0
VERTEX
8
1
10
-5.424341
20
5.527298
0
VERTEX
8
1
10
-5.424341
20
5.381341
0
VERTEX
8
1
10
-5.420000
20
5.377000
0
SEQEND
8
1
0
POLYLINE
8
1
66
1
40
0.127000
41
0.127000
0
VERTEX
8
1
10
3.897000
20
7.420000
0
VERTEX
8
1
10
3.897000
20
6.048356
0
VERTEX
8
1
10
5.262000
20
4.683356
0
VERTEX
8
1
10
5.262000
20
-6.709000
0
VERTEX
8
1
10
5.427000
20
-6.874000
0
SEQEND
8
1
0
POLYLINE
8
1
66
1
40
0.127000
41
0.127000
0
VERTEX
8
1
10
5.427000
20
-7.382000
0
VERTEX
8
1
10
5.737117
20
-7.071883
0
VERTEX
8
1
10
5.737117
20
-6.718796
0
VERTEX
8
1
10
5.551442
20
-6.533121
0
VERTEX
8
1
10
5.551442
20
4.746692
0
VERTEX
8
1
10
4.240986
20
6.057148
0
VERTEX
8
1
10
4.240986
20
7.525013
0
VERTEX
8
1
10
4.085783
20
7.680216
0
VERTEX
8
1
10
3.897784
20
7.680216
0
VERTEX
8
1
10
3.897000
20
7.681000
0
SEQEND
8
1
0
POLYLINE
8
1
66
1
40
0.127000
41
0.127000
0
VERTEX
8
1
10
-3.925000
20
7.681000
0
VERTEX
8
1
10
-4.012481
20
7.681000
0
VERTEX
8
1
10
-6.339000
20
5.354481
0
VERTEX
8
1
10
-6.339000
20
4.827000
0
VERTEX
8
1
10
-6.395000
20
4.827000
0
SEQEND
8
1
0
POLYLINE
8
1
66
1
40
0.127000
41
0.127000
0
VERTEX
8
1
10
-2.793000
20
6.626000
0
VERTEX
8
1
10
-4.375000
20
6.626000
0
VERTEX
8
1
10
-4.489000
20
6.512000
0
VERTEX
8
1
10
-3.051000
20
6.512000
0
SEQEND
8
1
0
POLYLINE
8
1
66
1
40
0.127000
41
0.127000
0
VERTEX
8
1
10
-2.793000
20
6.626000
0
VERTEX
8
1
10
-2.882366
20
6.536634
0
VERTEX
8
1
10
-3.051077
20
6.536634
0
SEQEND
8
1
0
POLYLINE
8
1
66
1
40
0.127000
41
0.127000
0
VERTEX
8
1
10
-4.489000
20
6.512000
0
VERTEX
8
1
10
-4.592000
20
6.409000
0
VERTEX
8
1
10
-3.010000
20
6.409000
0
VERTEX
8
1
10
-2.882366
20
6.536634
0
SEQEND
8
1
0
POLYLINE
8
1
66
1
40
0.127000
41
0.127000
0
VERTEX
8
1
10
8.965000
20
-7.382000
0
VERTEX
8
1
10
7.975024
20
-6.392024
0
VERTEX
8
1
10
7.975024
20
2.736793
0
VERTEX
8
1
10
6.099582
20
4.612235
0
VERTEX
8
1
10
6.099582
20
5.590495
0
VERTEX
8
1
10
5.807077
20
5.883000
0
VERTEX
8
1
10
5.805000
20
5.883000
0
SEQEND
8
1
0
POLYLINE
8
1
66
1
40
0.127000
41
0.127000
0
VERTEX
8
1
10
5.891000
20
-2.462000
0
VERTEX
8
1
10
5.806879
20
-2.546121
0
VERTEX
8
1
10
5.806879
20
-3.194359
0
VERTEX
8
1
10
6.099870
20
-3.487350
0
VERTEX
8
1
10
6.125003
20
-3.487350
0
SEQEND
8
1
0
POLYLINE
8
1
66
1
40
0.127000
41
0.127000
0
VERTEX
8
1
10
5.916000
20
-3.200000
0
VERTEX
8
1
10
6.028408
20
-3.312408
0
VERTEX
8
1
10
6.182292
20
-3.312408
0
VERTEX
8
1
10
6.197506
20
-3.297194
0
SEQEND
8
1
0
POLYLINE
8
1
66
1
40
0.127000
41
0.127000
0
VERTEX
8
1
10
4.730000
20
7.791000
0
VERTEX
8
1
10
4.555214
20
7.965786
0
VERTEX
8
1
10
3.886215
20
7.965786
0
VERTEX
8
1
10
-4.274855
20
7.965786
0
VERTEX
8
1
10
-4.301548
20
7.939093
0
SEQEND
8
1
0
POLYLINE
8
1
66
1
40
0.127000
41
0.127000
0
VERTEX
8
1
10
1.696302
20
4.805870
0
VERTEX
8
1
10
2.223916
20
4.805870
0
VERTEX
8
1
10
2.985204
20
4.044582
0
VERTEX
8
1
10
2.985204
20
4.454152
0
VERTEX
8
1
10
2.263099
20
5.176257
0
VERTEX
8
1
10
2.263099
20
5.108901
0
VERTEX
8
1
10
1.678901
20
5.108901
0
VERTEX
8
1
10
1.678901
20
5.391176
0
VERTEX
8
1
10
1.110996
20
5.391176
0
VERTEX
8
1
10
1.696302
20
4.805870
0
SEQEND
8
1
0
POLYLINE
8
1
66
1
40
0.127000
41
0.127000
0
VERTEX
8
1
10
-9.532897
20
3.447246
0
VERTEX
8
1
10
-8.515144
20
4.464999
0
VERTEX
8
1
10
-5.876173
20
4.464999
0
VERTEX
8
1
10
-5.806271
20
4.534901
0
VERTEX
8
1
10
-5.815991
20
4.534901
0
VERTEX
8
1
10
-5.987099
20
4.706009
0
VERTEX
8
1
10
-5.987099
20
4.947991
0
VERTEX
8
1
10
-5.948998
20
4.986091
0
VERTEX
8
1
10
-5.948998
20
5.385273
0
VERTEX
8
1
10
-6.085001
20
5.249271
0
VERTEX
8
1
10
-6.085001
20
4.721791
0
VERTEX
8
1
10
-6.233791
20
4.573001
0
VERTEX
8
1
10
-6.235909
20
4.573001
0
VERTEX
8
1
10
-6.274009
20
4.534901
0
VERTEX
8
1
10
-6.515991
20
4.534901
0
VERTEX
8
1
10
-6.687099
20
4.706009
0
VERTEX
8
1
10
-6.687099
20
4.947991
0
VERTEX
8
1
10
-6.592999
20
5.042091
0
VERTEX
8
1
10
-6.592999
20
5.459690
0
VERTEX
8
1
10
-4.117690
20
7.934999
0
VERTEX
8
1
10
-4.084091
20
7.934999
0
VERTEX
8
1
10
-4.047669
20
7.971421
0
VERTEX
8
1
10
-9.532897
20
7.971421
0
VERTEX
8
1
10
-9.532897
20
3.447246
0
SEQEND
8
1
0
POLYLINE
8
1
66
1
40
0.127000
41
0.127000
0
VERTEX
8
1
10
-7.393626
20
7.471424
0
VERTEX
8
1
10
-7.367743
20
7.420159
0
VERTEX
8
1
10
-7.333364
20
7.382472
0
VERTEX
8
1
10
-7.292996
20
7.355892
0
VERTEX
8
1
10
-7.249078
20
7.340146
0
VERTEX
8
1
10
-7.204000
20
7.335000
0
VERTEX
8
1
10
-7.158922
20
7.340146
0
VERTEX
8
1
10
-7.115004
20
7.355892
0
VERTEX
8
1
10
-7.074636
20
7.382472
0
VERTEX
8
1
10
-7.040257
20
7.420159
0
VERTEX
8
1
10
-7.014374
20
7.471424
0
VERTEX
8
1
10
-7.004000
20
7.535000
0
VERTEX
8
1
10
-7.014374
20
7.598576
0
VERTEX
8
1
10
-7.040257
20
7.649841
0
VERTEX
8
1
10
-7.074636
20
7.687528
0
VERTEX
8
1
10
-7.115004
20
7.714108
0
VERTEX
8
1
10
-7.158922
20
7.729854
0
VERTEX
8
1
10
-7.204000
20
7.735000
0
VERTEX
8
1
10
-7.249078
20
7.729854
0
VERTEX
8
1
10
-7.292996
20
7.714108
0
VERTEX
8
1
10
-7.333364
20
7.687528
0
VERTEX
8
1
10
-7.367743
20
7.649841
0
VERTEX
8
1
10
-7.393626
20
7.598576
0
VERTEX
8
1
10
-7.404000
20
7.535000
0
VERTEX
8
1
10
-7.393626
20
7.471424
0
SEQEND
8
1
0
POLYLINE
8
1
66
1
40
0.127000
41
0.127000
0
VERTEX
8
1
10
-7.383626
20
4.784424
0
VERTEX
8
1
10
-7.357743
20
4.733159
0
VERTEX
8
1
10
-7.323364
20
4.695472
0
VERTEX
8
1
10
-7.282996
20
4.668892
0
VERTEX
8
1
10
-7.239078
20
4.653146
0
VERTEX
8
1
10
-7.194000
20
4.648000
0
VERTEX
8
1
10
-7.148922
20
4.653146
0
VERTEX
8
1
10
-7.105004
20
4.668892
0
VERTEX
8
1
10
-7.064636
20
4.695472
0
VERTEX
8
1
10
-7.030257
20
4.733159
0
VERTEX
8
1
10
-7.004374
20
4.784424
0
VERTEX
8
1
10
-6.994000
20
4.848000
0
VERTEX
8
1
10
-7.004374
20
4.911576
0
VERTEX
8
1
10
-7.030257
20
4.962841
0
VERTEX
8
1
10
-7.064636
20
5.000528
0
VERTEX
8
1
10
-7.105004
20
5.027108
0
VERTEX
8
1
10
-7.148922
20
5.042854
0
VERTEX
8
1
10
-7.194000
20
5.048000
0
VERTEX
8
1
10
-7.239078
20
5.042854
0
VERTEX
8
1
10
-7.282996
20
5.027108
0
VERTEX
8
1
10
-7.323364
20
5.000528
0
VERTEX
8
1
10
-7.357743
20
4.962841
0
VERTEX
8
1
10
-7.383626
20
4.911576
0
VERTEX
8
1
10
-7.394000
20
4.848000
0
VERTEX
8
1
10
-7.383626
20
4.784424
0
SEQEND
8
1
0
POLYLINE
8
1
66
1
40
0.127000
41
0.127000
0
VERTEX
8
1
10
-2.765446
20
5.919364
0
VERTEX
8
1
10
-4.673067
20
5.919364
0
VERTEX
8
1
10
-4.923331
20
5.669099
0
VERTEX
8
1
10
-4.365901
20
5.669099
0
VERTEX
8
1
10
-4.365901
20
4.654842
0
VERTEX
8
1
10
-4.027739
20
4.316680
0
VERTEX
8
1
10
-3.471854
20
4.316680
0
VERTEX
8
1
10
-3.182002
20
4.026828
0
VERTEX
8
1
10
-3.182002
20
3.989092
0
VERTEX
8
1
10
-3.143901
20
3.950991
0
VERTEX
8
1
10
-3.143901
20
3.709009
0
VERTEX
8
1
10
-3.315009
20
3.537901
0
VERTEX
8
1
10
-3.556991
20
3.537901
0
VERTEX
8
1
10
-3.565500
20
3.546410
0
VERTEX
8
1
10
-3.570009
20
3.541901
0
VERTEX
8
1
10
-3.811991
20
3.541901
0
VERTEX
8
1
10
-3.847846
20
3.577756
0
VERTEX
8
1
10
-4.260893
20
3.577756
0
VERTEX
8
1
10
-4.326523
20
3.643386
0
VERTEX
8
1
10
-4.441509
20
3.528401
0
VERTEX
8
1
10
-4.683491
20
3.528401
0
VERTEX
8
1
10
-4.912491
20
3.757401
0
VERTEX
8
1
10
-4.913491
20
3.757401
0
VERTEX
8
1
10
-5.084599
20
3.928509
0
VERTEX
8
1
10
-5.084599
20
4.170491
0
VERTEX
8
1
10
-4.969113
20
4.285976
0
VERTEX
8
1
10
-5.166547
20
4.483410
0
VERTEX
8
1
10
-5.166547
20
4.456209
0
VERTEX
8
1
10
-5.665755
20
3.957001
0
VERTEX
8
1
10
-8.304726
20
3.957001
0
VERTEX
8
1
10
-9.205683
20
3.056044
0
VERTEX
8
1
10
-9.205683
20
-1.522901
0
VERTEX
8
1
10
-8.774430
20
-1.522901
0
VERTEX
8
1
10
-8.774430
20
2.687917
0
VERTEX
8
1
10
-7.948676
20
3.513671
0
VERTEX
8
1
10
-5.661761
20
3.513671
0
VERTEX
8
1
10
-5.703099
20
3.555009
0
VERTEX
8
1
10
-5.703099
20
3.796991
0
VERTEX
8
1
10
-5.531991
20
3.968099
0
VERTEX
8
1
10
-5.290009
20
3.968099
0
VERTEX
8
1
10
-5.118901
20
3.796991
0
VERTEX
8
1
10
-5.118901
20
3.555009
0
VERTEX
8
1
10
-5.160239
20
3.513671
0
VERTEX
8
1
10
-2.475537
20
3.513671
0
VERTEX
8
1
10
-2.367099
20
3.622109
0
VERTEX
8
1
10
-2.367099
20
3.847099
0
VERTEX
8
1
10
-1.782901
20
3.847099
0
VERTEX
8
1
10
-1.782901
20
3.262901
0
VERTEX
8
1
10
-2.007891
20
3.262901
0
VERTEX
8
1
10
-2.265117
20
3.005675
0
VERTEX
8
1
10
-2.893901
20
3.005675
0
VERTEX
8
1
10
-2.893901
20
2.817009
0
VERTEX
8
1
10
-2.929724
20
2.781186
0
VERTEX
8
1
10
-2.929724
20
-3.054611
0
VERTEX
8
1
10
-2.684099
20
-3.300236
0
VERTEX
8
1
10
-2.684099
20
-2.953901
0
VERTEX
8
1
10
-2.630307
20
-2.953901
0
VERTEX
8
1
10
-2.872178
20
-2.712030
0
VERTEX
8
1
10
-2.872178
20
1.445030
0
VERTEX
8
1
10
-0.508209
20
3.808999
0
VERTEX
8
1
10
1.322911
20
3.808999
0
VERTEX
8
1
10
1.271901
20
3.860009
0
VERTEX
8
1
10
1.271901
20
4.068944
0
VERTEX
8
1
10
1.252571
20
4.068944
0
VERTEX
8
1
10
1.086474
20
3.902847
0
VERTEX
8
1
10
-0.878469
20
3.902847
0
VERTEX
8
1
10
-1.215766
20
4.240144
0
VERTEX
8
1
10
-1.215766
20
5.081988
0
VERTEX
8
1
10
-1.820161
20
4.477593
0
VERTEX
8
1
10
-3.705317
20
4.477593
0
VERTEX
8
1
10
-3.797009
20
4.385901
0
VERTEX
8
1
10
-4.038991
20
4.385901
0
VERTEX
8
1
10
-4.210099
20
4.557009
0
VERTEX
8
1
10
-4.210099
20
4.798991
0
VERTEX
8
1
10
-4.038991
20
4.970099
0
VERTEX
8
1
10
-3.985109
20
4.970099
0
VERTEX
8
1
10
-3.969617
20
4.985591
0
VERTEX
8
1
10
-2.030579
20
4.985591
0
VERTEX
8
1
10
-1.907269
20
5.108901
0
VERTEX
8
1
10
-2.367099
20
5.108901
0
VERTEX
8
1
10
-2.367099
20
5.693099
0
VERTEX
8
1
10
-1.782901
20
5.693099
0
VERTEX
8
1
10
-1.782901
20
5.233269
0
VERTEX
8
1
10
-1.542263
20
5.473907
0
VERTEX
8
1
10
-1.542263
20
6.442901
0
VERTEX
8
1
10
-1.953099
20
6.442901
0
VERTEX
8
1
10
-1.953099
20
6.731711
0
VERTEX
8
1
10
-2.765446
20
5.919364
0
SEQEND
8
1
0
POLYLINE
8
1
66
1
40
0.127000
41
0.127000
0
VERTEX
8
1
10
-2.137860
20
2.710247
0
VERTEX
8
1
10
-2.111397
20
2.670229
0
VERTEX
8
1
10
-2.077853
20
2.643022
0
VERTEX
8
1
10
-2.040159
20
2.627080
0
VERTEX
8
1
10
-2.001121
20
2.621911
0
VERTEX
8
1
10
-1.962083
20
2.627080
0
VERTEX
8
1
10
-1.924389
20
2.643022
0
VERTEX
8
1
10
-1.890845
20
2.670229
0
VERTEX
8
1
10
-1.864382
20
2.710247
0
VERTEX
8
1
10
-1.851121
20
2.771911
0
VERTEX
8
1
10
-1.864382
20
2.833575
0
VERTEX
8
1
10
-1.890845
20
2.873593
0
VERTEX
8
1
10
-1.924389
20
2.900800
0
VERTEX
8
1
10
-1.962083
20
2.916742
0
VERTEX
8
1
10
-2.001121
20
2.921911
0
VERTEX
8
1
10
-2.040159
20
2.916742
0
VERTEX
8
1
10
-2.077853
20
2.900800
0
VERTEX
8
1
10
-2.111397
20
2.873593
0
VERTEX
8
1
10
-2.137860
20
2.833575
0
VERTEX
8
1
10
-2.151121
20
2.771911
0
VERTEX
8
1
10
-2.137860
20
2.710247
0
SEQEND
8
1
0
POLYLINE
8
1
66
1
40
0.127000
41
0.127000
0
VERTEX
8
1
10
1.856099
20
3.860009
0
VERTEX
8
1
10
1.843189
20
3.847099
0
VERTEX
8
1
10
2.129337
20
3.847099
0
VERTEX
8
1
10
1.907492
20
4.068944
0
VERTEX
8
1
10
1.856099
20
4.068944
0
VERTEX
8
1
10
1.856099
20
3.860009
0
SEQEND
8
1
0
POLYLINE
8
1
66
1
40
0.127000
41
0.127000
0
VERTEX
8
1
10
-2.364180
20
1.234612
0
VERTEX
8
1
10
-2.364180
20
-2.501612
0
VERTEX
8
1
10
-1.911891
20
-2.953901
0
VERTEX
8
1
10
-0.801200
20
-2.953901
0
VERTEX
8
1
10
-0.760099
20
-2.912800
0
VERTEX
8
1
10
-0.760099
20
-2.699009
0
VERTEX
8
1
10
-0.588991
20
-2.527901
0
VERTEX
8
1
10
-0.347009
20
-2.527901
0
VERTEX
8
1
10
-0.175901
20
-2.699009
0
VERTEX
8
1
10
-0.175901
20
-2.940991
0
VERTEX
8
1
10
-0.188810
20
-2.953901
0
VERTEX
8
1
10
-0.062109
20
-2.953901
0
VERTEX
8
1
10
0.044901
20
-2.846891
0
VERTEX
8
1
10
0.044901
20
-2.698009
0
VERTEX
8
1
10
0.216009
20
-2.526901
0
VERTEX
8
1
10
0.457991
20
-2.526901
0
VERTEX
8
1
10
0.629099
20
-2.698009
0
VERTEX
8
1
10
0.629099
20
-2.939991
0
VERTEX
8
1
10
0.615189
20
-2.953901
0
VERTEX
8
1
10
1.478552
20
-2.953901
0
VERTEX
8
1
10
1.769092
20
-2.663361
0
VERTEX
8
1
10
2.059310
20
-2.663361
0
VERTEX
8
1
10
2.283688
20
-2.438983
0
VERTEX
8
1
10
2.283688
20
-1.812853
0
VERTEX
8
1
10
2.285309
20
-1.811232
0
VERTEX
8
1
10
2.285309
20
3.301001
0
VERTEX
8
1
10
2.263099
20
3.301001
0
VERTEX
8
1
10
2.263099
20
3.262901
0
VERTEX
8
1
10
1.862099
20
3.262901
0
VERTEX
8
1
10
1.862099
20
3.085009
0
VERTEX
8
1
10
1.690991
20
2.913901
0
VERTEX
8
1
10
1.449009
20
2.913901
0
VERTEX
8
1
10
1.277901
20
3.085009
0
VERTEX
8
1
10
1.277901
20
3.301001
0
VERTEX
8
1
10
-0.297791
20
3.301001
0
VERTEX
8
1
10
-2.364180
20
1.234612
0
SEQEND
8
1
0
POLYLINE
8
1
66
1
40
0.127000
41
0.127000
0
VERTEX
8
1
10
1.762261
20
2.711336
0
VERTEX
8
1
10
1.788724
20
2.671318
0
VERTEX
8
1
10
1.822268
20
2.644111
0
VERTEX
8
1
10
1.859962
20
2.628169
0
VERTEX
8
1
10
1.899000
20
2.623000
0
VERTEX
8
1
10
1.938038
20
2.628169
0
VERTEX
8
1
10
1.975732
20
2.644111
0
VERTEX
8
1
10
2.009276
20
2.671318
0
VERTEX
8
1
10
2.035739
20
2.711336
0
VERTEX
8
1
10
2.049000
20
2.773000
0
VERTEX
8
1
10
2.035739
20
2.834664
0
VERTEX
8
1
10
2.009276
20
2.874682
0
VERTEX
8
1
10
1.975732
20
2.901889
0
VERTEX
8
1
10
1.938038
20
2.917831
0
VERTEX
8
1
10
1.899000
20
2.923000
0
VERTEX
8
1
10
1.859962
20
2.917831
0
VERTEX
8
1
10
1.822268
20
2.901889
0
VERTEX
8
1
10
1.788724
20
2.874682
0
VERTEX
8
1
10
1.762261
20
2.834664
0
VERTEX
8
1
10
1.749000
20
2.773000
0
VERTEX
8
1
10
1.762261
20
2.711336
0
SEQEND
8
1
0
POLYLINE
8
1
66
1
40
0.127000
41
0.127000
0
VERTEX
8
1
10
1.762261
20
-2.088664
0
VERTEX
8
1
10
1.788724
20
-2.128682
0
VERTEX
8
1
10
1.822268
20
-2.155889
0
VERTEX
8
1
10
1.859962
20
-2.171831
0
VERTEX
8
1
10
1.899000
20
-2.177000
0
VERTEX
8
1
10
1.938038
20
-2.171831
0
VERTEX
8
1
10
1.975732
20
-2.155889
0
VERTEX
8
1
10
2.009276
20
-2.128682
0
VERTEX
8
1
10
2.035739
20
-2.088664
0
VERTEX
8
1
10
2.049000
20
-2.027000
0
VERTEX
8
1
10
2.035739
20
-1.965336
0
VERTEX
8
1
10
2.009276
20
-1.925318
0
VERTEX
8
1
10
1.975732
20
-1.898111
0
VERTEX
8
1
10
1.938038
20
-1.882169
0
VERTEX
8
1
10
1.899000
20
-1.877000
0
VERTEX
8
1
10
1.859962
20
-1.882169
0
VERTEX
8
1
10
1.822268
20
-1.898111
0
VERTEX
8
1
10
1.788724
20
-1.925318
0
VERTEX
8
1
10
1.762261
20
-1.965336
0
VERTEX
8
1
10
1.749000
20
-2.027000
0
VERTEX
8
1
10
1.762261
20
-2.088664
0
SEQEND
8
1
0
POLYLINE
8
1
66
1
40
0.127000
41
0.127000
0
VERTEX
8
1
10
-2.137739
20
-2.088664
0
VERTEX
8
1
10
-2.111276
20
-2.128682
0
VERTEX
8
1
10
-2.077732
20
-2.155889
0
VERTEX
8
1
10
-2.040038
20
-2.171831
0
VERTEX
8
1
10
-2.001000
20
-2.177000
0
VERTEX
8
1
10
-1.961962
20
-2.171831
0
VERTEX
8
1
10
-1.924268
20
-2.155889
0
VERTEX
8
1
10
-1.890724
20
-2.128682
0
VERTEX
8
1
10
-1.864261
20
-2.088664
0
VERTEX
8
1
10
-1.851000
20
-2.027000
0
VERTEX
8
1
10
-1.864261
20
-1.965336
0
VERTEX
8
1
10
-1.890724
20
-1.925318
0
VERTEX
8
1
10
-1.924268
20
-1.898111
0
VERTEX
8
1
10
-1.961962
20
-1.882169
0
VERTEX
8
1
10
-2.001000
20
-1.877000
0
VERTEX
8
1
10
-2.040038
20
-1.882169
0
VERTEX
8
1
10
-2.077732
20
-1.898111
0
VERTEX
8
1
10
-2.111276
20
-1.925318
0
VERTEX
8
1
10
-2.137739
20
-1.965336
0
VERTEX
8
1
10
-2.151000
20
-2.027000
0
VERTEX
8
1
10
-2.137739
20
-2.088664
0
SEQEND
8
1
0
POLYLINE
8
1
66
1
40
0.127000
41
0.127000
0
VERTEX
8
1
10
4.056875
20
7.934215
0
VERTEX
8
1
10
4.190992
20
7.934215
0
VERTEX
8
1
10
4.494984
20
7.630223
0
VERTEX
8
1
10
4.494984
20
6.162358
0
VERTEX
8
1
10
5.805441
20
4.851901
0
VERTEX
8
1
10
5.805441
20
-2.907901
0
VERTEX
8
1
10
6.036991
20
-2.907901
0
VERTEX
8
1
10
6.208099
20
-3.079009
0
VERTEX
8
1
10
6.208099
20
-3.320991
0
VERTEX
8
1
10
6.065090
20
-3.464000
0
VERTEX
8
1
10
6.161991
20
-3.560901
0
VERTEX
8
1
10
6.443971
20
-3.560901
0
VERTEX
8
1
10
6.816271
20
-3.188601
0
VERTEX
8
1
10
6.951585
20
-3.188601
0
VERTEX
8
1
10
7.053185
20
-3.087001
0
VERTEX
8
1
10
7.368815
20
-3.087001
0
VERTEX
8
1
10
7.591999
20
-3.310185
0
VERTEX
8
1
10
7.591999
20
-3.625815
0
VERTEX
8
1
10
7.569913
20
-3.647901
0
VERTEX
8
1
10
7.666991
20
-3.647901
0
VERTEX
8
1
10
7.705091
20
-3.686001
0
VERTEX
8
1
10
7.721025
20
-3.686001
0
VERTEX
8
1
10
7.721025
20
2.631584
0
VERTEX
8
1
10
7.377099
20
2.975510
0
VERTEX
8
1
10
7.377099
20
2.903009
0
VERTEX
8
1
10
7.205991
20
2.731901
0
VERTEX
8
1
10
6.964009
20
2.731901
0
VERTEX
8
1
10
6.792901
20
2.903009
0
VERTEX
8
1
10
6.792901
20
3.144991
0
VERTEX
8
1
10
6.964009
20
3.316099
0
VERTEX
8
1
10
7.036510
20
3.316099
0
VERTEX
8
1
10
5.845583
20
4.507026
0
VERTEX
8
1
10
5.845583
20
5.485286
0
VERTEX
8
1
10
5.739968
20
5.590901
0
VERTEX
8
1
10
5.684009
20
5.590901
0
VERTEX
8
1
10
5.512901
20
5.762009
0
VERTEX
8
1
10
5.512901
20
6.003991
0
VERTEX
8
1
10
5.684009
20
6.175099
0
VERTEX
8
1
10
5.925991
20
6.175099
0
VERTEX
8
1
10
6.097099
20
6.003991
0
VERTEX
8
1
10
6.097099
20
5.952186
0
VERTEX
8
1
10
6.353581
20
5.695704
0
VERTEX
8
1
10
6.353581
20
4.717444
0
VERTEX
8
1
10
6.807149
20
4.263876
0
VERTEX
8
1
10
6.807149
20
5.387644
0
VERTEX
8
1
10
5.903892
20
6.290901
0
VERTEX
8
1
10
5.684009
20
6.290901
0
VERTEX
8
1
10
5.512901
20
6.462009
0
VERTEX
8
1
10
5.512901
20
6.703991
0
VERTEX
8
1
10
5.684009
20
6.875099
0
VERTEX
8
1
10
5.925991
20
6.875099
0
VERTEX
8
1
10
5.964091
20
6.836999
0
VERTEX
8
1
10
6.076210
20
6.836999
0
VERTEX
8
1
10
7.315147
20
5.598062
0
VERTEX
8
1
10
7.315147
20
4.168884
0
VERTEX
8
1
10
7.535971
20
3.948060
0
VERTEX
8
1
10
7.704009
20
4.116099
0
VERTEX
8
1
10
7.945991
20
4.116099
0
VERTEX
8
1
10
8.117099
20
3.944991
0
VERTEX
8
1
10
8.117099
20
3.703009
0
VERTEX
8
1
10
7.949061
20
3.534970
0
VERTEX
8
1
10
8.455637
20
3.028394
0
VERTEX
8
1
10
8.455637
20
-2.290835
0
VERTEX
8
1
10
8.613901
20
-2.132571
0
VERTEX
8
1
10
8.613901
20
-1.522901
0
VERTEX
8
1
10
9.452099
20
-1.522901
0
VERTEX
8
1
10
9.452099
20
-2.869099
0
VERTEX
8
1
10
9.187140
20
-2.869099
0
VERTEX
8
1
10
9.187140
20
-3.155326
0
VERTEX
8
1
10
9.341999
20
-3.310185
0
VERTEX
8
1
10
9.341999
20
-3.625815
0
VERTEX
8
1
10
9.118815
20
-3.848999
0
VERTEX
8
1
10
9.072099
20
-3.848999
0
VERTEX
8
1
10
9.072099
20
-3.934991
0
VERTEX
8
1
10
9.066090
20
-3.941000
0
VERTEX
8
1
10
9.072099
20
-3.947009
0
VERTEX
8
1
10
9.072099
20
-4.188991
0
VERTEX
8
1
10
8.900991
20
-4.360099
0
VERTEX
8
1
10
8.707099
20
-4.360099
0
VERTEX
8
1
10
8.707099
20
-4.411099
0
VERTEX
8
1
10
8.455637
20
-4.411099
0
VERTEX
8
1
10
8.455637
20
-6.005429
0
VERTEX
8
1
10
8.981309
20
-6.531101
0
VERTEX
8
1
10
9.107033
20
-6.531101
0
VERTEX
8
1
10
9.307899
20
-6.731967
0
VERTEX
8
1
10
9.307899
20
-7.016033
0
VERTEX
8
1
10
9.195932
20
-7.128000
0
VERTEX
8
1
10
9.307899
20
-7.239967
0
VERTEX
8
1
10
9.307899
20
-7.524033
0
VERTEX
8
1
10
9.107033
20
-7.724899
0
VERTEX
8
1
10
8.822967
20
-7.724899
0
VERTEX
8
1
10
8.622101
20
-7.524033
0
VERTEX
8
1
10
8.622101
20
-7.398309
0
VERTEX
8
1
10
7.721025
20
-6.497233
0
VERTEX
8
1
10
7.721025
20
-4.408099
0
VERTEX
8
1
10
7.702120
20
-4.408099
0
VERTEX
8
1
10
7.702120
20
-6.624516
0
VERTEX
8
1
10
8.766998
20
-7.689393
0
VERTEX
8
1
10
8.766998
20
-7.794603
0
VERTEX
8
1
10
8.766999
20
-7.938067
0
VERTEX
8
1
10
8.855899
20
-8.026967
0
VERTEX
8
1
10
8.855899
20
-8.311033
0
VERTEX
8
1
10
8.655033
20
-8.511899
0
VERTEX
8
1
10
8.370967
20
-8.511899
0
VERTEX
8
1
10
8.259001
20
-8.399933
0
VERTEX
8
1
10
8.147033
20
-8.511899
0
VERTEX
8
1
10
7.862967
20
-8.511899
0
VERTEX
8
1
10
7.751000
20
-8.399932
0
VERTEX
8
1
10
7.639033
20
-8.511899
0
VERTEX
8
1
10
7.354967
20
-8.511899
0
VERTEX
8
1
10
7.293099
20
-8.450031
0
VERTEX
8
1
10
7.293099
20
-8.611099
0
VERTEX
8
1
10
7.190108
20
-8.611099
0
VERTEX
8
1
10
6.896102
20
-8.905105
0
VERTEX
8
1
10
9.452146
20
-8.905105
0
VERTEX
8
1
10
9.452146
20
7.971421
0
VERTEX
8
1
10
4.019669
20
7.971421
0
VERTEX
8
1
10
4.056875
20
7.934215
0
SEQEND
8
1
0
POLYLINE
8
1
66
1
40
0.127000
41
0.127000
0
VERTEX
8
1
10
6.414374
20
7.520424
0
VERTEX
8
1
10
6.440257
20
7.469159
0
VERTEX
8
1
10
6.474636
20
7.431472
0
VERTEX
8
1
10
6.515004
20
7.404892
0
VERTEX
8
1
10
6.558922
20
7.389146
0
VERTEX
8
1
10
6.604000
20
7.384000
0
VERTEX
8
1
10
6.649078
20
7.389146
0
VERTEX
8
1
10
6.692996
20
7.404892
0
VERTEX
8
1
10
6.733364
20
7.431472
0
VERTEX
8
1
10
6.767743
20
7.469159
0
VERTEX
8
1
10
6.793626
20
7.520424
0
VERTEX
8
1
10
6.804000
20
7.584000
0
VERTEX
8
1
10
6.793626
20
7.647576
0
VERTEX
8
1
10
6.767743
20
7.698841
0
VERTEX
8
1
10
6.733364
20
7.736528
0
VERTEX
8
1
10
6.692996
20
7.763108
0
VERTEX
8
1
10
6.649078
20
7.778854
0
VERTEX
8
1
10
6.604000
20
7.784000
0
VERTEX
8
1
10
6.558922
20
7.778854
0
VERTEX
8
1
10
6.515004
20
7.763108
0
VERTEX
8
1
10
6.474636
20
7.736528
0
VERTEX
8
1
10
6.440257
20
7.698841
0
VERTEX
8
1
10
6.414374
20
7.647576
0
VERTEX
8
1
10
6.404000
20
7.584000
0
VERTEX
8
1
10
6.414374
20
7.520424
0
SEQEND
8
1
0
POLYLINE
8
1
66
1
40
0.127000
41
0.127000
0
VERTEX
8
1
10
6.416374
20
4.819424
0
VERTEX
8
1
10
6.442257
20
4.768159
0
VERTEX
8
1
10
6.476636
20
4.730472
0
VERTEX
8
1
10
6.517004
20
4.703892
0
VERTEX
8
1
10
6.560922
20
4.688146
0
VERTEX
8
1
10
6.606000
20
4.683000
0
VERTEX
8
1
10
6.651078
20
4.688146
0
VERTEX
8
1
10
6.694996
20
4.703892
0
VERTEX
8
1
10
6.735364
20
4.730472
0
VERTEX
8
1
10
6.769743
20
4.768159
0
VERTEX
8
1
10
6.795626
20
4.819424
0
VERTEX
8
1
10
6.806000
20
4.883000
0
VERTEX
8
1
10
6.795626
20
4.946576
0
VERTEX
8
1
10
6.769743
20
4.997841
0
VERTEX
8
1
10
6.735364
20
5.035528
0
VERTEX
8
1
10
6.694996
20
5.062108
0
VERTEX
8
1
10
6.651078
20
5.077854
0
VERTEX
8
1
10
6.606000
20
5.083000
0
VERTEX
8
1
10
6.560922
20
5.077854
0
VERTEX
8
1
10
6.517004
20
5.062108
0
VERTEX
8
1
10
6.476636
20
5.035528
0
VERTEX
8
1
10
6.442257
20
4.997841
0
VERTEX
8
1
10
6.416374
20
4.946576
0
VERTEX
8
1
10
6.406000
20
4.883000
0
VERTEX
8
1
10
6.416374
20
4.819424
0
SEQEND
8
1
0
POLYLINE
8
1
66
1
40
0.127000
41
0.127000
0
VERTEX
8
1
10
-8.266434
20
2.477497
0
VERTEX
8
1
10
-8.266434
20
-2.093164
0
VERTEX
8
1
10
-8.629493
20
-2.456223
0
VERTEX
8
1
10
-8.697901
20
-2.456223
0
VERTEX
8
1
10
-8.697901
20
-2.869099
0
VERTEX
8
1
10
-8.710601
20
-2.869099
0
VERTEX
8
1
10
-8.710601
20
-3.259585
0
VERTEX
8
1
10
-8.660001
20
-3.310185
0
VERTEX
8
1
10
-8.660001
20
-3.625815
0
VERTEX
8
1
10
-8.883185
20
-3.848999
0
VERTEX
8
1
10
-9.113146
20
-3.848999
0
VERTEX
8
1
10
-8.997716
20
-3.964429
0
VERTEX
8
1
10
-8.415099
20
-3.964429
0
VERTEX
8
1
10
-8.415099
20
-3.798009
0
VERTEX
8
1
10
-8.243991
20
-3.626901
0
VERTEX
8
1
10
-8.002009
20
-3.626901
0
VERTEX
8
1
10
-7.830901
20
-3.798009
0
VERTEX
8
1
10
-7.830901
20
-3.964429
0
VERTEX
8
1
10
-6.915699
20
-3.964429
0
VERTEX
8
1
10
-7.082157
20
-3.797971
0
VERTEX
8
1
10
-7.133185
20
-3.848999
0
VERTEX
8
1
10
-7.448815
20
-3.848999
0
VERTEX
8
1
10
-7.671999
20
-3.625815
0
VERTEX
8
1
10
-7.671999
20
-3.310185
0
VERTEX
8
1
10
-7.448815
20
-3.087001
0
VERTEX
8
1
10
-7.133185
20
-3.087001
0
VERTEX
8
1
10
-7.026361
20
-3.193825
0
VERTEX
8
1
10
-6.896022
20
-3.193825
0
VERTEX
8
1
10
-6.635470
20
-3.454377
0
VERTEX
8
1
10
-6.635470
20
-3.454402
0
VERTEX
8
1
10
-6.503971
20
-3.585901
0
VERTEX
8
1
10
-6.060901
20
-3.585901
0
VERTEX
8
1
10
-6.060901
20
-3.964429
0
VERTEX
8
1
10
-4.154661
20
-3.964429
0
VERTEX
8
1
10
-4.215099
20
-3.903991
0
VERTEX
8
1
10
-4.215099
20
-3.853003
0
VERTEX
8
1
10
-4.439538
20
-3.628564
0
VERTEX
8
1
10
-4.439538
20
2.647901
0
VERTEX
8
1
10
-4.555991
20
2.647901
0
VERTEX
8
1
10
-4.727099
20
2.819009
0
VERTEX
8
1
10
-4.727099
20
3.005675
0
VERTEX
8
1
10
-5.200585
20
3.005675
0
VERTEX
8
1
10
-5.119901
20
2.924991
0
VERTEX
8
1
10
-5.119901
20
2.683009
0
VERTEX
8
1
10
-5.291009
20
2.511901
0
VERTEX
8
1
10
-5.532991
20
2.511901
0
VERTEX
8
1
10
-5.704099
20
2.683009
0
VERTEX
8
1
10
-5.704099
20
2.924991
0
VERTEX
8
1
10
-5.623415
20
3.005675
0
VERTEX
8
1
10
-7.738256
20
3.005675
0
VERTEX
8
1
10
-8.266434
20
2.477497
0
SEQEND
8
1
0
POLYLINE
8
1
66
1
40
0.127000
41
0.127000
0
VERTEX
8
1
10
-9.532897
20
-8.905105
0
VERTEX
8
1
10
0.569345
20
-8.905105
0
VERTEX
8
1
10
0.505839
20
-8.841599
0
VERTEX
8
1
10
-3.706599
20
-8.841599
0
VERTEX
8
1
10
-3.706599
20
-8.257401
0
VERTEX
8
1
10
-2.399007
20
-8.257401
0
VERTEX
8
1
10
-2.399007
20
-7.390337
0
VERTEX
8
1
10
-4.176999
20
-5.612345
0
VERTEX
8
1
10
-4.176999
20
-4.819091
0
VERTEX
8
1
10
-4.215099
20
-4.780991
0
VERTEX
8
1
10
-4.215099
20
-4.539009
0
VERTEX
8
1
10
-4.148517
20
-4.472427
0
VERTEX
8
1
10
-7.861483
20
-4.472427
0
VERTEX
8
1
10
-7.834901
20
-4.499009
0
VERTEX
8
1
10
-7.834901
20
-4.740991
0
VERTEX
8
1
10
-8.006009
20
-4.912099
0
VERTEX
8
1
10
-8.247991
20
-4.912099
0
VERTEX
8
1
10
-8.419099
20
-4.740991
0
VERTEX
8
1
10
-8.419099
20
-4.499009
0
VERTEX
8
1
10
-8.392517
20
-4.472427
0
VERTEX
8
1
10
-9.208134
20
-4.472427
0
VERTEX
8
1
10
-9.532897
20
-4.147664
0
VERTEX
8
1
10
-9.532897
20
-8.905105
0
SEQEND
8
1
0
POLYLINE
8
1
66
1
40
0.127000
41
0.127000
0
VERTEX
8
1
10
6.839099
20
-3.956029
0
VERTEX
8
1
10
6.839099
20
-4.145099
0
VERTEX
8
1
10
6.154999
20
-4.145099
0
VERTEX
8
1
10
6.154999
20
-5.086394
0
VERTEX
8
1
10
7.194122
20
-6.125517
0
VERTEX
8
1
10
7.194122
20
-4.232099
0
VERTEX
8
1
10
7.171009
20
-4.232099
0
VERTEX
8
1
10
6.999901
20
-4.060991
0
VERTEX
8
1
10
6.999901
20
-3.819009
0
VERTEX
8
1
10
7.011548
20
-3.807362
0
VERTEX
8
1
10
6.999657
20
-3.795471
0
VERTEX
8
1
10
6.839099
20
-3.956029
0
SEQEND
8
1
0
POLYLINE
8
1
66
1
40
0.127000
41
0.127000
0
VERTEX
8
1
10
4.667998
20
-3.260000
0
VERTEX
8
1
10
4.667998
20
-3.365210
0
VERTEX
8
1
10
4.623149
20
-3.410059
0
VERTEX
8
1
10
4.792099
20
-3.579009
0
VERTEX
8
1
10
4.792099
20
-3.820991
0
VERTEX
8
1
10
4.673689
20
-3.939401
0
VERTEX
8
1
10
4.751599
20
-3.939401
0
VERTEX
8
1
10
4.751599
20
-7.279501
0
VERTEX
8
1
10
4.804089
20
-7.279501
0
VERTEX
8
1
10
4.905788
20
-7.381200
0
VERTEX
8
1
10
5.084101
20
-7.381200
0
VERTEX
8
1
10
5.084101
20
-7.239967
0
VERTEX
8
1
10
5.196068
20
-7.128000
0
VERTEX
8
1
10
5.084101
20
-7.016033
0
VERTEX
8
1
10
5.084101
20
-6.890309
0
VERTEX
8
1
10
5.008001
20
-6.814209
0
VERTEX
8
1
10
5.008001
20
-3.492099
0
VERTEX
8
1
10
4.845009
20
-3.492099
0
VERTEX
8
1
10
4.673901
20
-3.320991
0
VERTEX
8
1
10
4.673901
20
-3.079009
0
VERTEX
8
1
10
4.845009
20
-2.907901
0
VERTEX
8
1
10
5.008001
20
-2.907901
0
VERTEX
8
1
10
5.008001
20
4.578147
0
VERTEX
8
1
10
4.667998
20
4.918150
0
VERTEX
8
1
10
4.667998
20
-3.260000
0
SEQEND
8
1
0
POLYLINE
8
1
66
1
40
0.127000
41
0.127000
0
VERTEX
8
1
10
5.805441
20
-6.427912
0
VERTEX
8
1
10
5.991116
20
-6.613587
0
VERTEX
8
1
10
5.991116
20
-7.177092
0
VERTEX
8
1
10
5.787008
20
-7.381200
0
VERTEX
8
1
10
6.516491
20
-7.381200
0
VERTEX
8
1
10
7.000999
20
-7.865708
0
VERTEX
8
1
10
7.000999
20
-8.026901
0
VERTEX
8
1
10
7.154167
20
-8.026901
0
VERTEX
8
1
10
7.354967
20
-7.826101
0
VERTEX
8
1
10
7.639033
20
-7.826101
0
VERTEX
8
1
10
7.751000
20
-7.938068
0
VERTEX
8
1
10
7.862967
20
-7.826101
0
VERTEX
8
1
10
8.147033
20
-7.826101
0
VERTEX
8
1
10
8.259000
20
-7.938068
0
VERTEX
8
1
10
8.259002
20
-7.938066
0
VERTEX
8
1
10
8.259002
20
-7.899813
0
VERTEX
8
1
10
7.342913
20
-6.983724
0
VERTEX
8
1
10
7.342911
20
-6.983724
0
VERTEX
8
1
10
7.158987
20
-6.799800
0
VERTEX
8
1
10
7.149989
20
-6.799800
0
VERTEX
8
1
10
5.805441
20
-5.455252
0
VERTEX
8
1
10
5.805441
20
-6.427912
0
SEQEND
8
1
0
POLYLINE
8
1
66
1
40
0.127000
41
0.127000
0
VERTEX
8
1
10
-1.964896
20
-4.030662
0
VERTEX
8
1
10
-2.406661
20
-4.472427
0
VERTEX
8
1
10
-2.673910
20
-4.472427
0
VERTEX
8
1
10
-2.596901
20
-4.549436
0
VERTEX
8
1
10
-2.596901
20
-4.791418
0
VERTEX
8
1
10
-2.635001
20
-4.829518
0
VERTEX
8
1
10
-2.635001
20
-5.119807
0
VERTEX
8
1
10
-0.874502
20
-6.880306
0
VERTEX
8
1
10
-0.874502
20
-6.985516
0
VERTEX
8
1
10
-0.874501
20
-8.257401
0
VERTEX
8
1
10
3.735599
20
-8.257401
0
VERTEX
8
1
10
3.735599
20
-8.559640
0
VERTEX
8
1
10
3.913401
20
-8.559640
0
VERTEX
8
1
10
3.913401
20
-4.254999
0
VERTEX
8
1
10
-0.401209
20
-4.254999
0
VERTEX
8
1
10
-0.640609
20
-4.015599
0
VERTEX
8
1
10
-1.949833
20
-4.015599
0
VERTEX
8
1
10
-1.964896
20
-4.030662
0
SEQEND
8
1
0
POLYLINE
8
1
66
1
40
0.203200
41
0.203200
0
VERTEX
8
1
10
1.418000
20
-3.017401
0
VERTEX
8
1
10
1.418000
20
-3.246000
0
SEQEND
8
1
0
POLYLINE
8
1
66
1
40
0.203200
41
0.203200
0
VERTEX
8
1
10
0.656000
20
-3.017401
0
VERTEX
8
1
10
0.656000
20
-3.246000
0
SEQEND
8
1
0
POLYLINE
8
1
66
1
40
0.203200
41
0.203200
0
VERTEX
8
1
10
-0.106000
20
-3.017401
0
VERTEX
8
1
10
-0.106000
20
-3.246000
0
SEQEND
8
1
0
POLYLINE
8
1
66
1
40
0.203200
41
0.203200
0
VERTEX
8
1
10
-1.630000
20
-3.017401
0
VERTEX
8
1
10
-1.630000
20
-3.246000
0
SEQEND
8
1
0
POLYLINE
8
1
66
1
40
0.203200
41
0.203200
0
VERTEX
8
1
10
-2.620599
20
-3.246000
0
VERTEX
8
1
10
-2.392000
20
-3.246000
0
SEQEND
8
1
0
POLYLINE
8
1
66
1
40
0.203200
41
0.203200
0
VERTEX
8
1
10
-1.128500
20
-3.952099
0
VERTEX
8
1
10
-1.128500
20
-3.723500
0
SEQEND
8
1
0
POLYLINE
8
1
66
1
40
0.203200
41
0.203200
0
VERTEX
8
1
10
-0.874500
20
-3.952099
0
VERTEX
8
1
10
-0.874500
20
-3.723500
0
SEQEND
8
1
0
POLYLINE
8
1
66
1
40
0.203200
41
0.203200
0
VERTEX
8
1
10
4.688099
20
-4.231500
0
VERTEX
8
1
10
4.459500
20
-4.231500
0
SEQEND
8
1
0
POLYLINE
8
1
66
1
40
0.203200
41
0.203200
0
VERTEX
8
1
10
-2.652500
20
-8.320901
0
VERTEX
8
1
10
-2.652500
20
-8.549500
0
SEQEND
8
1
0
POLYLINE
8
1
66
1
40
0.203200
41
0.203200
0
VERTEX
8
1
10
-2.652500
20
-8.778099
0
VERTEX
8
1
10
-2.652500
20
-8.549500
0
SEQEND
8
1
0
POLYLINE
8
1
66
1
40
0.203200
41
0.203200
0
VERTEX
8
1
10
6.293000
20
-4.081599
0
VERTEX
8
1
10
6.293000
20
-3.853000
0
SEQEND
8
1
0
POLYLINE
8
1
66
1
40
0.203200
41
0.203200
0
VERTEX
8
1
10
6.293000
20
-3.624401
0
VERTEX
8
1
10
6.293000
20
-3.853000
0
SEQEND
8
1
0
POLYLINE
8
1
66
1
40
0.203200
41
0.203200
0
VERTEX
8
1
10
8.005000
20
-7.889601
0
VERTEX
8
1
10
8.005000
20
-8.169000
0
SEQEND
8
1
0
POLYLINE
8
1
66
1
40
0.203200
41
0.203200
0
VERTEX
8
1
10
8.005000
20
-8.448399
0
VERTEX
8
1
10
8.005000
20
-8.169000
0
SEQEND
8
1
0
POLYLINE
8
1
66
1
40
0.203200
41
0.203200
0
VERTEX
8
1
10
-4.429401
20
4.939000
0
VERTEX
8
1
10
-4.658000
20
4.939000
0
SEQEND
8
1
0
POLYLINE
8
1
66
1
40
0.203200
41
0.203200
0
VERTEX
8
1
10
-4.658000
20
5.605599
0
VERTEX
8
1
10
-4.658000
20
5.377000
0
SEQEND
8
1
0
POLYLINE
8
1
66
1
40
0.203200
41
0.203200
0
VERTEX
8
1
10
-4.429401
20
5.377000
0
VERTEX
8
1
10
-4.658000
20
5.377000
0
SEQEND
8
1
0
POLYLINE
8
1
66
1
40
0.203200
41
0.203200
0
VERTEX
8
1
10
-6.353000
20
-3.649401
0
VERTEX
8
1
10
-6.353000
20
-3.878000
0
SEQEND
8
1
0
POLYLINE
8
1
66
1
40
0.203200
41
0.203200
0
VERTEX
8
1
10
-6.124401
20
-3.878000
0
VERTEX
8
1
10
-6.353000
20
-3.878000
0
SEQEND
8
1
0
POLYLINE
8
1
66
1
40
0.203200
41
0.203200
0
VERTEX
8
1
10
-1.846401
20
5.401000
0
VERTEX
8
1
10
-2.075000
20
5.401000
0
SEQEND
8
1
0
POLYLINE
8
1
66
1
40
0.203200
41
0.203200
0
VERTEX
8
1
10
-2.075000
20
5.172401
0
VERTEX
8
1
10
-2.075000
20
5.401000
0
SEQEND
8
1
0
POLYLINE
8
1
66
1
40
0.203200
41
0.203200
0
VERTEX
8
1
10
-2.303599
20
5.401000
0
VERTEX
8
1
10
-2.075000
20
5.401000
0
SEQEND
8
1
0
POLYLINE
8
1
66
1
40
0.203200
41
0.203200
0
VERTEX
8
1
10
-2.075000
20
5.629599
0
VERTEX
8
1
10
-2.075000
20
5.401000
0
SEQEND
8
1
0
POLYLINE
8
1
66
1
40
0.203200
41
0.203200
0
VERTEX
8
1
10
1.971000
20
5.172401
0
VERTEX
8
1
10
1.971000
20
5.401000
0
SEQEND
8
1
0
POLYLINE
8
1
66
1
40
0.203200
41
0.203200
0
VERTEX
8
1
10
-1.661000
20
6.506401
0
VERTEX
8
1
10
-1.661000
20
6.735000
0
SEQEND
8
1
0
POLYLINE
8
1
66
1
40
0.203200
41
0.203200
0
VERTEX
8
1
10
-0.868000
20
-3.017401
0
VERTEX
8
1
10
-0.868000
20
-3.246000
0
SEQEND
8
1
0
POLYLINE
8
1
66
1
40
0.203200
41
0.203200
0
VERTEX
8
1
10
-7.894401
20
-3.919000
0
VERTEX
8
1
10
-8.123000
20
-3.919000
0
SEQEND
8
1
0
POLYLINE
8
1
66
1
40
0.203200
41
0.203200
0
VERTEX
8
1
10
-8.351599
20
-3.919000
0
VERTEX
8
1
10
-8.123000
20
-3.919000
0
SEQEND
8
1
0
POLYLINE
8
1
66
1
40
0.203200
41
0.203200
0
VERTEX
8
1
10
-8.123000
20
-3.690401
0
VERTEX
8
1
10
-8.123000
20
-3.919000
0
SEQEND
8
1
0
POLYLINE
8
1
66
1
40
0.203200
41
0.203200
0
VERTEX
8
1
10
-7.898401
20
-4.620000
0
VERTEX
8
1
10
-8.127000
20
-4.620000
0
SEQEND
8
1
0
POLYLINE
8
1
66
1
40
0.203200
41
0.203200
0
VERTEX
8
1
10
-8.355599
20
-4.620000
0
VERTEX
8
1
10
-8.127000
20
-4.620000
0
SEQEND
8
1
0
POLYLINE
8
1
66
1
40
0.203200
41
0.203200
0
VERTEX
8
1
10
-8.127000
20
-4.848599
0
VERTEX
8
1
10
-8.127000
20
-4.620000
0
SEQEND
8
1
0
POLYLINE
8
1
66
1
40
0.203200
41
0.203200
0
VERTEX
8
1
10
6.144599
20
-3.200000
0
VERTEX
8
1
10
5.916000
20
-3.200000
0
SEQEND
8
1
0
POLYLINE
8
1
66
1
40
0.203200
41
0.203200
0
VERTEX
8
1
10
5.916000
20
-2.971401
0
VERTEX
8
1
10
5.916000
20
-3.200000
0
SEQEND
8
1
0
POLYLINE
8
1
66
1
40
0.203200
41
0.203200
0
VERTEX
8
1
10
4.737401
20
-3.200000
0
VERTEX
8
1
10
4.966000
20
-3.200000
0
SEQEND
8
1
0
POLYLINE
8
1
66
1
40
0.203200
41
0.203200
0
VERTEX
8
1
10
4.966000
20
-3.428599
0
VERTEX
8
1
10
4.966000
20
-3.200000
0
SEQEND
8
1
0
POLYLINE
8
1
66
1
40
0.203200
41
0.203200
0
VERTEX
8
1
10
4.966000
20
-2.971401
0
VERTEX
8
1
10
4.966000
20
-3.200000
0
SEQEND
8
1
0
POLYLINE
8
1
66
1
40
0.203200
41
0.203200
0
VERTEX
8
1
10
1.798599
20
3.206000
0
VERTEX
8
1
10
1.570000
20
3.206000
0
SEQEND
8
1
0
POLYLINE
8
1
66
1
40
0.203200
41
0.203200
0
VERTEX
8
1
10
1.341401
20
3.206000
0
VERTEX
8
1
10
1.570000
20
3.206000
0
SEQEND
8
1
0
POLYLINE
8
1
66
1
40
0.203200
41
0.203200
0
VERTEX
8
1
10
1.570000
20
2.977401
0
VERTEX
8
1
10
1.570000
20
3.206000
0
SEQEND
8
1
0
POLYLINE
8
1
66
1
40
0.203200
41
0.203200
0
VERTEX
8
1
10
1.792599
20
3.981000
0
VERTEX
8
1
10
1.564000
20
3.981000
0
SEQEND
8
1
0
POLYLINE
8
1
66
1
40
0.203200
41
0.203200
0
VERTEX
8
1
10
1.335401
20
3.981000
0
VERTEX
8
1
10
1.564000
20
3.981000
0
SEQEND
8
1
0
POLYLINE
8
1
66
1
40
0.203200
41
0.203200
0
VERTEX
8
1
10
-5.183401
20
2.804000
0
VERTEX
8
1
10
-5.412000
20
2.804000
0
SEQEND
8
1
0
POLYLINE
8
1
66
1
40
0.203200
41
0.203200
0
VERTEX
8
1
10
-5.640599
20
2.804000
0
VERTEX
8
1
10
-5.412000
20
2.804000
0
SEQEND
8
1
0
POLYLINE
8
1
66
1
40
0.203200
41
0.203200
0
VERTEX
8
1
10
-5.412000
20
2.575401
0
VERTEX
8
1
10
-5.412000
20
2.804000
0
SEQEND
8
1
0
POLYLINE
8
1
66
1
40
0.203200
41
0.203200
0
VERTEX
8
1
10
-5.182401
20
3.676000
0
VERTEX
8
1
10
-5.411000
20
3.676000
0
SEQEND
8
1
0
POLYLINE
8
1
66
1
40
0.203200
41
0.203200
0
VERTEX
8
1
10
-5.639599
20
3.676000
0
VERTEX
8
1
10
-5.411000
20
3.676000
0
SEQEND
8
1
0
POLYLINE
8
1
66
1
40
0.203200
41
0.203200
0
VERTEX
8
1
10
-5.411000
20
3.904599
0
VERTEX
8
1
10
-5.411000
20
3.676000
0
SEQEND
8
1
0
POLYLINE
8
1
66
1
40
0.203200
41
0.203200
0
VERTEX
8
1
10
7.063401
20
-3.940000
0
VERTEX
8
1
10
7.292000
20
-3.940000
0
SEQEND
8
1
0
POLYLINE
8
1
66
1
40
0.203200
41
0.203200
0
VERTEX
8
1
10
8.780000
20
-4.296599
0
VERTEX
8
1
10
8.780000
20
-4.068000
0
SEQEND
8
1
0
POLYLINE
8
1
66
1
40
0.203200
41
0.203200
0
VERTEX
8
1
10
9.008599
20
-4.068000
0
VERTEX
8
1
10
8.780000
20
-4.068000
0
SEQEND
8
1
0
POLYLINE
8
1
66
1
40
0.203200
41
0.203200
0
VERTEX
8
1
10
8.053599
20
3.824000
0
VERTEX
8
1
10
7.825000
20
3.824000
0
SEQEND
8
1
0
POLYLINE
8
1
66
1
40
0.203200
41
0.203200
0
VERTEX
8
1
10
7.825000
20
4.052599
0
VERTEX
8
1
10
7.825000
20
3.824000
0
SEQEND
8
1
0
POLYLINE
8
1
66
1
40
0.203200
41
0.203200
0
VERTEX
8
1
10
6.856401
20
3.024000
0
VERTEX
8
1
10
7.085000
20
3.024000
0
SEQEND
8
1
0
POLYLINE
8
1
66
1
40
0.203200
41
0.203200
0
VERTEX
8
1
10
7.085000
20
2.795401
0
VERTEX
8
1
10
7.085000
20
3.024000
0
SEQEND
8
1
0
INSERT
8
2
2
RPAD
10
1.926000
20
-3.246000
41
0.203200
42
0.203200
50
0.000000
0
CIRCLE
8
0
10
1.926000
20
-3.246000
40
0.063500
0
INSERT
8
2
2
RPAD
10
1.672000
20
-3.246000
41
0.203200
42
0.203200
50
0.000000
0
CIRCLE
8
0
10
1.672000
20
-3.246000
40
0.063500
0
INSERT
8
2
2
RPAD
10
1.418000
20
-3.246000
41
0.203200
42
0.203200
50
0.000000
0
CIRCLE
8
0
10
1.418000
20
-3.246000
40
0.063500
0
INSERT
8
2
2
RPAD
10
1.164000
20
-3.246000
41
0.203200
42
0.203200
50
0.000000
0
CIRCLE
8
0
10
1.164000
20
-3.246000
40
0.063500
0
INSERT
8
2
2
RPAD
10
0.910000
20
-3.246000
41
0.203200
42
0.203200
50
0.000000
0
CIRCLE
8
0
10
0.910000
20
-3.246000
40
0.063500
0
INSERT
8
2
2
RPAD
10
0.656000
20
-3.246000
41
0.203200
42
0.203200
50
0.000000
0
CIRCLE
8
0
10
0.656000
20
-3.246000
40
0.063500
0
INSERT
8
2
2
RPAD
10
0.402000
20
-3.246000
41
0.203200
42
0.203200
50
0.000000
0
CIRCLE
8
0
10
0.402000
20
-3.246000
40
0.063500
0
INSERT
8
2
2
RPAD
10
0.148000
20
-3.246000
41
0.203200
42
0.203200
50
0.000000
0
CIRCLE
8
0
10
0.148000
20
-3.246000
40
0.063500
0
INSERT
8
2
2
RPAD
10
-0.106000
20
-3.246000
41
0.203200
42
0.203200
50
0.000000
0
CIRCLE
8
0
10
-0.106000
20
-3.246000
40
0.063500
0
INSERT
8
2
2
RPAD
10
-1.122000
20
-3.246000
41
0.203200
42
0.203200
50
0.000000
0
CIRCLE
8
0
10
-1.122000
20
-3.246000
40
0.063500
0
INSERT
8
2
2
RPAD
10
-1.376000
20
-3.246000
41
0.203200
42
0.203200
50
0.000000
0
CIRCLE
8
0
10
-1.376000
20
-3.246000
40
0.063500
0
INSERT
8
2
2
RPAD
10
-1.630000
20
-3.246000
41
0.203200
42
0.203200
50
0.000000
0
CIRCLE
8
0
10
-1.630000
20
-3.246000
40
0.063500
0
INSERT
8
2
2
RPAD
10
-1.884000
20
-3.246000
41
0.203200
42
0.203200
50
0.000000
0
CIRCLE
8
0
10
-1.884000
20
-3.246000
40
0.063500
0
INSERT
8
2
2
RPAD
10
-2.138000
20
-3.246000
41
0.203200
42
0.203200
50
0.000000
0
CIRCLE
8
0
10
-2.138000
20
-3.246000
40
0.063500
0
INSERT
8
2
2
RPAD
10
-2.392000
20
-3.246000
41
0.203200
42
0.203200
50
0.000000
0
CIRCLE
8
0
10
-2.392000
20
-3.246000
40
0.063500
0
INSERT
8
2
2
RPAD
10
1.157500
20
-8.549500
41
0.203200
42
0.203200
50
180.000000
0
CIRCLE
8
0
10
1.157500
20
-8.549500
40
0.063500
0
INSERT
8
2
2
RPAD
10
0.903500
20
-8.549500
41
0.203200
42
0.203200
50
180.000000
0
CIRCLE
8
0
10
0.903500
20
-8.549500
40
0.063500
0
INSERT
8
2
2
RPAD
10
0.649500
20
-8.549500
41
0.203200
42
0.203200
50
180.000000
0
CIRCLE
8
0
10
0.649500
20
-8.549500
40
0.063500
0
INSERT
8
2
2
RPAD
10
0.395500
20
-8.549500
41
0.203200
42
0.203200
50
180.000000
0
CIRCLE
8
0
10
0.395500
20
-8.549500
40
0.063500
0
INSERT
8
2
2
RPAD
10
-1.636500
20
-3.723500
41
0.203200
42
0.203200
50
180.000000
0
CIRCLE
8
0
10
-1.636500
20
-3.723500
40
0.063500
0
INSERT
8
2
2
RPAD
10
0.141500
20
-8.549500
41
0.203200
42
0.203200
50
180.000000
0
CIRCLE
8
0
10
0.141500
20
-8.549500
40
0.063500
0
INSERT
8
2
2
RPAD
10
-0.112500
20
-8.549500
41
0.203200
42
0.203200
50
180.000000
0
CIRCLE
8
0
10
-0.112500
20
-8.549500
40
0.063500
0
INSERT
8
2
2
RPAD
10
-2.144500
20
-3.723500
41
0.203200
42
0.203200
50
180.000000
0
CIRCLE
8
0
10
-2.144500
20
-3.723500
40
0.063500
0
INSERT
8
2
2
RPAD
10
-1.382500
20
-3.723500
41
0.203200
42
0.203200
50
180.000000
0
CIRCLE
8
0
10
-1.382500
20
-3.723500
40
0.063500
0
INSERT
8
2
2
RPAD
10
4.205500
20
-8.549500
41
0.203200
42
0.203200
50
270.000000
0
CIRCLE
8
0
10
4.205500
20
-8.549500
40
0.063500
0
INSERT
8
2
2
RPAD
10
4.459500
20
-8.549500
41
0.203200
42
0.203200
50
270.000000
0
CIRCLE
8
0
10
4.459500
20
-8.549500
40
0.063500
0
INSERT
8
2
2
RPAD
10
-0.366500
20
-8.549500
41
0.203200
42
0.203200
50
180.000000
0
CIRCLE
8
0
10
-0.366500
20
-8.549500
40
0.063500
0
INSERT
8
2
2
RPAD
10
-0.620500
20
-8.549500
41
0.203200
42
0.203200
50
180.000000
0
CIRCLE
8
0
10
-0.620500
20
-8.549500
40
0.063500
0
INSERT
8
2
2
RPAD
10
-1.128500
20
-8.549500
41
0.203200
42
0.203200
50
180.000000
0
CIRCLE
8
0
10
-1.128500
20
-8.549500
40
0.063500
0
INSERT
8
2
2
RPAD
10
-1.382500
20
-8.549500
41
0.203200
42
0.203200
50
180.000000
0
CIRCLE
8
0
10
-1.382500
20
-8.549500
40
0.063500
0
INSERT
8
2
2
RPAD
10
-1.636500
20
-8.549500
41
0.203200
42
0.203200
50
180.000000
0
CIRCLE
8
0
10
-1.636500
20
-8.549500
40
0.063500
0
INSERT
8
2
2
RPAD
10
-1.890500
20
-8.549500
41
0.203200
42
0.203200
50
180.000000
0
CIRCLE
8
0
10
-1.890500
20
-8.549500
40
0.063500
0
INSERT
8
2
2
RPAD
10
-2.144500
20
-8.549500
41
0.203200
42
0.203200
50
180.000000
0
CIRCLE
8
0
10
-2.144500
20
-8.549500
40
0.063500
0
INSERT
8
2
2
RPAD
10
-2.398500
20
-8.549500
41
0.203200
42
0.203200
50
180.000000
0
CIRCLE
8
0
10
-2.398500
20
-8.549500
40
0.063500
0
INSERT
8
2
2
RPAD
10
1.665500
20
-8.549500
41
0.203200
42
0.203200
50
180.000000
0
CIRCLE
8
0
10
1.665500
20
-8.549500
40
0.063500
0
INSERT
8
2
2
RPAD
10
1.919500
20
-8.549500
41
0.203200
42
0.203200
50
180.000000
0
CIRCLE
8
0
10
1.919500
20
-8.549500
40
0.063500
0
INSERT
8
2
2
RPAD
10
2.173500
20
-8.549500
41
0.203200
42
0.203200
50
180.000000
0
CIRCLE
8
0
10
2.173500
20
-8.549500
40
0.063500
0
INSERT
8
2
2
RPAD
10
2.427500
20
-8.549500
41
0.203200
42
0.203200
50
180.000000
0
CIRCLE
8
0
10
2.427500
20
-8.549500
40
0.063500
0
INSERT
8
2
2
RPAD
10
2.681500
20
-8.549500
41
0.203200
42
0.203200
50
180.000000
0
CIRCLE
8
0
10
2.681500
20
-8.549500
40
0.063500
0
INSERT
8
2
2
RPAD
10
2.935500
20
-8.549500
41
0.203200
42
0.203200
50
180.000000
0
CIRCLE
8
0
10
2.935500
20
-8.549500
40
0.063500
0
INSERT
8
2
2
RPAD
10
3.189500
20
-8.549500
41
0.203200
42
0.203200
50
180.000000
0
CIRCLE
8
0
10
3.189500
20
-8.549500
40
0.063500
0
INSERT
8
2
2
RPAD
10
3.443500
20
-8.549500
41
0.203200
42
0.203200
50
180.000000
0
CIRCLE
8
0
10
3.443500
20
-8.549500
40
0.063500
0
INSERT
8
2
2
RPAD
10
4.205500
20
-8.295500
41
0.203200
42
0.203200
50
270.000000
0
CIRCLE
8
0
10
4.205500
20
-8.295500
40
0.063500
0
INSERT
8
2
2
RPAD
10
4.459500
20
-8.295500
41
0.203200
42
0.203200
50
270.000000
0
CIRCLE
8
0
10
4.459500
20
-8.295500
40
0.063500
0
INSERT
8
2
2
RPAD
10
4.205500
20
-8.041500
41
0.203200
42
0.203200
50
270.000000
0
CIRCLE
8
0
10
4.205500
20
-8.041500
40
0.063500
0
INSERT
8
2
2
RPAD
10
4.459500
20
-8.041500
41
0.203200
42
0.203200
50
270.000000
0
CIRCLE
8
0
10
4.459500
20
-8.041500
40
0.063500
0
INSERT
8
2
2
RPAD
10
4.205500
20
-7.787500
41
0.203200
42
0.203200
50
270.000000
0
CIRCLE
8
0
10
4.205500
20
-7.787500
40
0.063500
0
INSERT
8
2
2
RPAD
10
4.459500
20
-7.787500
41
0.203200
42
0.203200
50
270.000000
0
CIRCLE
8
0
10
4.459500
20
-7.787500
40
0.063500
0
INSERT
8
2
2
RPAD
10
4.205500
20
-7.533500
41
0.203200
42
0.203200
50
270.000000
0
CIRCLE
8
0
10
4.205500
20
-7.533500
40
0.063500
0
INSERT
8
2
2
RPAD
10
4.459500
20
-7.533500
41
0.203200
42
0.203200
50
270.000000
0
CIRCLE
8
0
10
4.459500
20
-7.533500
40
0.063500
0
INSERT
8
2
2
RPAD
10
4.205500
20
-7.279500
41
0.203200
42
0.203200
50
270.000000
0
CIRCLE
8
0
10
4.205500
20
-7.279500
40
0.063500
0
INSERT
8
2
2
RPAD
10
4.459500
20
-7.279500
41
0.203200
42
0.203200
50
270.000000
0
CIRCLE
8
0
10
4.459500
20
-7.279500
40
0.063500
0
INSERT
8
2
2
RPAD
10
4.205500
20
-7.025500
41
0.203200
42
0.203200
50
270.000000
0
CIRCLE
8
0
10
4.205500
20
-7.025500
40
0.063500
0
INSERT
8
2
2
RPAD
10
4.459500
20
-7.025500
41
0.203200
42
0.203200
50
270.000000
0
CIRCLE
8
0
10
4.459500
20
-7.025500
40
0.063500
0
INSERT
8
2
2
RPAD
10
4.205500
20
-6.771500
41
0.203200
42
0.203200
50
270.000000
0
CIRCLE
8
0
10
4.205500
20
-6.771500
40
0.063500
0
INSERT
8
2
2
RPAD
10
4.459500
20
-6.771500
41
0.203200
42
0.203200
50
270.000000
0
CIRCLE
8
0
10
4.459500
20
-6.771500
40
0.063500
0
INSERT
8
2
2
RPAD
10
4.205500
20
-6.517500
41
0.203200
42
0.203200
50
270.000000
0
CIRCLE
8
0
10
4.205500
20
-6.517500
40
0.063500
0
INSERT
8
2
2
RPAD
10
4.459500
20
-6.517500
41
0.203200
42
0.203200
50
270.000000
0
CIRCLE
8
0
10
4.459500
20
-6.517500
40
0.063500
0
INSERT
8
2
2
RPAD
10
4.205500
20
-6.263500
41
0.203200
42
0.203200
50
270.000000
0
CIRCLE
8
0
10
4.205500
20
-6.263500
40
0.063500
0
INSERT
8
2
2
RPAD
10
4.459500
20
-6.263500
41
0.203200
42
0.203200
50
270.000000
0
CIRCLE
8
0
10
4.459500
20
-6.263500
40
0.063500
0
INSERT
8
2
2
RPAD
10
4.205500
20
-6.009500
41
0.203200
42
0.203200
50
270.000000
0
CIRCLE
8
0
10
4.205500
20
-6.009500
40
0.063500
0
INSERT
8
2
2
RPAD
10
4.459500
20
-6.009500
41
0.203200
42
0.203200
50
270.000000
0
CIRCLE
8
0
10
4.459500
20
-6.009500
40
0.063500
0
INSERT
8
2
2
RPAD
10
4.205500
20
-5.755500
41
0.203200
42
0.203200
50
270.000000
0
CIRCLE
8
0
10
4.205500
20
-5.755500
40
0.063500
0
INSERT
8
2
2
RPAD
10
4.459500
20
-5.755500
41
0.203200
42
0.203200
50
270.000000
0
CIRCLE
8
0
10
4.459500
20
-5.755500
40
0.063500
0
INSERT
8
2
2
RPAD
10
4.205500
20
-5.501500
41
0.203200
42
0.203200
50
270.000000
0
CIRCLE
8
0
10
4.205500
20
-5.501500
40
0.063500
0
INSERT
8
2
2
RPAD
10
4.459500
20
-5.501500
41
0.203200
42
0.203200
50
270.000000
0
CIRCLE
8
0
10
4.459500
20
-5.501500
40
0.063500
0
INSERT
8
2
2
RPAD
10
4.205500
20
-5.247500
41
0.203200
42
0.203200
50
270.000000
0
CIRCLE
8
0
10
4.205500
20
-5.247500
40
0.063500
0
INSERT
8
2
2
RPAD
10
4.459500
20
-5.247500
41
0.203200
42
0.203200
50
270.000000
0
CIRCLE
8
0
10
4.459500
20
-5.247500
40
0.063500
0
INSERT
8
2
2
RPAD
10
4.205500
20
-4.993500
41
0.203200
42
0.203200
50
270.000000
0
CIRCLE
8
0
10
4.205500
20
-4.993500
40
0.063500
0
INSERT
8
2
2
RPAD
10
4.459500
20
-4.993500
41
0.203200
42
0.203200
50
270.000000
0
CIRCLE
8
0
10
4.459500
20
-4.993500
40
0.063500
0
INSERT
8
2
2
RPAD
10
4.205500
20
-4.739500
41
0.203200
42
0.203200
50
270.000000
0
CIRCLE
8
0
10
4.205500
20
-4.739500
40
0.063500
0
INSERT
8
2
2
RPAD
10
4.459500
20
-4.739500
41
0.203200
42
0.203200
50
270.000000
0
CIRCLE
8
0
10
4.459500
20
-4.739500
40
0.063500
0
INSERT
8
2
2
RPAD
10
4.205500
20
-4.485500
41
0.203200
42
0.203200
50
270.000000
0
CIRCLE
8
0
10
4.205500
20
-4.485500
40
0.063500
0
INSERT
8
2
2
RPAD
10
4.459500
20
-4.485500
41
0.203200
42
0.203200
50
270.000000
0
CIRCLE
8
0
10
4.459500
20
-4.485500
40
0.063500
0
INSERT
8
2
2
RPAD
10
-0.112500
20
-3.723500
41
0.203200
42
0.203200
50
180.000000
0
CIRCLE
8
0
10
-0.112500
20
-3.723500
40
0.063500
0
INSERT
8
2
2
RPAD
10
0.141500
20
-3.723500
41
0.203200
42
0.203200
50
180.000000
0
CIRCLE
8
0
10
0.141500
20
-3.723500
40
0.063500
0
INSERT
8
2
2
RPAD
10
0.395500
20
-3.723500
41
0.203200
42
0.203200
50
180.000000
0
CIRCLE
8
0
10
0.395500
20
-3.723500
40
0.063500
0
INSERT
8
2
2
RPAD
10
0.649500
20
-3.723500
41
0.203200
42
0.203200
50
180.000000
0
CIRCLE
8
0
10
0.649500
20
-3.723500
40
0.063500
0
INSERT
8
2
2
RPAD
10
0.903500
20
-3.723500
41
0.203200
42
0.203200
50
180.000000
0
CIRCLE
8
0
10
0.903500
20
-3.723500
40
0.063500
0
INSERT
8
2
2
RPAD
10
1.157500
20
-3.723500
41
0.203200
42
0.203200
50
180.000000
0
CIRCLE
8
0
10
1.157500
20
-3.723500
40
0.063500
0
INSERT
8
2
2
RPAD
10
1.411500
20
-3.723500
41
0.203200
42
0.203200
50
180.000000
0
CIRCLE
8
0
10
1.411500
20
-3.723500
40
0.063500
0
INSERT
8
2
2
RPAD
10
1.665500
20
-3.723500
41
0.203200
42
0.203200
50
180.000000
0
CIRCLE
8
0
10
1.665500
20
-3.723500
40
0.063500
0
INSERT
8
2
2
RPAD
10
2.173500
20
-3.722500
41
0.203200
42
0.203200
50
180.000000
0
CIRCLE
8
0
10
2.173500
20
-3.722500
40
0.063500
0
INSERT
8
2
2
RPAD
10
2.427500
20
-3.722500
41
0.203200
42
0.203200
50
180.000000
0
CIRCLE
8
0
10
2.427500
20
-3.722500
40
0.063500
0
INSERT
8
2
2
RPAD
10
2.681500
20
-3.722500
41
0.203200
42
0.203200
50
180.000000
0
CIRCLE
8
0
10
2.681500
20
-3.722500
40
0.063500
0
INSERT
8
2
2
RPAD
10
2.935500
20
-3.722500
41
0.203200
42
0.203200
50
180.000000
0
CIRCLE
8
0
10
2.935500
20
-3.722500
40
0.063500
0
INSERT
8
2
2
RPAD
10
3.189500
20
-3.722500
41
0.203200
42
0.203200
50
180.000000
0
CIRCLE
8
0
10
3.189500
20
-3.722500
40
0.063500
0
INSERT
8
2
2
RPAD
10
3.443500
20
-3.722500
41
0.203200
42
0.203200
50
180.000000
0
CIRCLE
8
0
10
3.443500
20
-3.722500
40
0.063500
0
INSERT
8
2
2
RPAD
10
3.697500
20
-3.722500
41
0.203200
42
0.203200
50
180.000000
0
CIRCLE
8
0
10
3.697500
20
-3.722500
40
0.063500
0
INSERT
8
2
2
RPAD
10
3.951500
20
-3.722500
41
0.203200
42
0.203200
50
180.000000
0
CIRCLE
8
0
10
3.951500
20
-3.722500
40
0.063500
0
INSERT
8
2
2
RPAD
10
-2.906500
20
-8.549500
41
0.203200
42
0.203200
50
180.000000
0
CIRCLE
8
0
10
-2.906500
20
-8.549500
40
0.063500
0
INSERT
8
2
2
RPAD
10
-2.398500
20
-3.723500
41
0.203200
42
0.203200
50
180.000000
0
CIRCLE
8
0
10
-2.398500
20
-3.723500
40
0.063500
0
INSERT
8
2
2
RPAD
10
-1.128500
20
-3.723500
41
0.203200
42
0.203200
50
180.000000
0
CIRCLE
8
0
10
-1.128500
20
-3.723500
40
0.063500
0
INSERT
8
2
2
RPAD
10
-0.874500
20
-3.723500
41
0.203200
42
0.203200
50
180.000000
0
CIRCLE
8
0
10
-0.874500
20
-3.723500
40
0.063500
0
INSERT
8
2
2
RPAD
10
4.205500
20
-4.231500
41
0.203200
42
0.203200
50
270.000000
0
CIRCLE
8
0
10
4.205500
20
-4.231500
40
0.063500
0
INSERT
8
2
2
RPAD
10
4.459500
20
-4.231500
41
0.203200
42
0.203200
50
270.000000
0
CIRCLE
8
0
10
4.459500
20
-4.231500
40
0.063500
0
INSERT
8
2
2
RPAD
10
-2.652500
20
-8.549500
41
0.203200
42
0.203200
50
180.000000
0
CIRCLE
8
0
10
-2.652500
20
-8.549500
40
0.063500
0
INSERT
8
2
2
RPAD
10
-1.890500
20
-3.723500
41
0.203200
42
0.203200
50
180.000000
0
CIRCLE
8
0
10
-1.890500
20
-3.723500
40
0.063500
0
INSERT
8
2
2
RPAD
10
-3.414500
20
-8.549500
41
0.203200
42
0.203200
50
180.000000
0
CIRCLE
8
0
10
-3.414500
20
-8.549500
40
0.063500
0
INSERT
8
2
2
RPAD
10
-3.160500
20
-8.549500
41
0.203200
42
0.203200
50
180.000000
0
CIRCLE
8
0
10
-3.160500
20
-8.549500
40
0.063500
0
INSERT
8
2
2
RPAD
10
-0.620500
20
-3.723500
41
0.203200
42
0.203200
50
180.000000
0
CIRCLE
8
0
10
-0.620500
20
-3.723500
40
0.063500
0
INSERT
8
2
2
RPAD
10
6.547000
20
-3.853000
41
0.203200
42
0.203200
50
0.000000
0
CIRCLE
8
0
10
6.547000
20
-3.853000
40
0.063500
0
INSERT
8
2
2
RPAD
10
6.293000
20
-3.853000
41
0.203200
42
0.203200
50
0.000000
0
CIRCLE
8
0
10
6.293000
20
-3.853000
40
0.063500
0
INSERT
8
2
2
EPAD
10
7.497000
20
-8.169000
41
0.304800
42
0.304800
0
CIRCLE
8
0
10
7.497000
20
-8.169000
40
0.076200
0
INSERT
8
2
2
EPAD
10
8.513000
20
-8.169000
41
0.304800
42
0.304800
0
CIRCLE
8
0
10
8.513000
20
-8.169000
40
0.076200
0
INSERT
8
2
2
RPAD
10
6.747000
20
-8.319000
41
0.203200
42
0.203200
50
180.000000
0
CIRCLE
8
0
10
6.747000
20
-8.319000
40
0.063500
0
INSERT
8
2
2
RPAD
10
6.493000
20
-8.319000
41
0.203200
42
0.203200
50
180.000000
0
CIRCLE
8
0
10
6.493000
20
-8.319000
40
0.063500
0
INSERT
8
2
2
RPAD
10
6.239000
20
-8.319000
41
0.203200
42
0.203200
50
180.000000
0
CIRCLE
8
0
10
6.239000
20
-8.319000
40
0.063500
0
INSERT
8
2
2
RPAD
10
5.985000
20
-8.319000
41
0.203200
42
0.203200
50
180.000000
0
CIRCLE
8
0
10
5.985000
20
-8.319000
40
0.063500
0
INSERT
8
2
2
RPAD
10
7.001000
20
-8.319000
41
0.203200
42
0.203200
50
180.000000
0
CIRCLE
8
0
10
7.001000
20
-8.319000
40
0.063500
0
INSERT
8
2
2
RPAD
10
5.731000
20
-8.319000
41
0.203200
42
0.203200
50
180.000000
0
CIRCLE
8
0
10
5.731000
20
-8.319000
40
0.063500
0
INSERT
8
2
2
EPAD
10
8.005000
20
-8.169000
41
0.304800
42
0.304800
0
CIRCLE
8
0
10
8.005000
20
-8.169000
40
0.076200
0
INSERT
8
2
2
EPAD
10
8.965000
20
-6.874000
41
0.304800
42
0.304800
0
CIRCLE
8
0
10
8.965000
20
-6.874000
40
0.076200
0
INSERT
8
2
2
EPAD
10
8.965000
20
-7.382000
41
0.304800
42
0.304800
0
CIRCLE
8
0
10
8.965000
20
-7.382000
40
0.076200
0
INSERT
8
2
2
EPAD
10
5.427000
20
-7.382000
41
0.304800
42
0.304800
0
CIRCLE
8
0
10
5.427000
20
-7.382000
40
0.076200
0
INSERT
8
2
2
EPAD
10
5.427000
20
-6.874000
41
0.304800
42
0.304800
0
CIRCLE
8
0
10
5.427000
20
-6.874000
40
0.076200
0
INSERT
8
2
2
EPAD
10
5.805000
20
6.583000
41
0.203200
42
0.203200
0
CIRCLE
8
0
10
5.805000
20
6.583000
40
0.063500
0
INSERT
8
2
2
EPAD
10
5.805000
20
5.883000
41
0.203200
42
0.203200
0
CIRCLE
8
0
10
5.805000
20
5.883000
40
0.063500
0
INSERT
8
2
2
EPAD
10
-5.695000
20
4.827000
41
0.203200
42
0.203200
0
CIRCLE
8
0
10
-5.695000
20
4.827000
40
0.063500
0
INSERT
8
2
2
EPAD
10
-6.395000
20
4.827000
41
0.203200
42
0.203200
0
CIRCLE
8
0
10
-6.395000
20
4.827000
40
0.063500
0
INSERT
8
2
2
RPAD
10
-4.658000
20
4.939000
41
0.203200
42
0.203200
50
0.000000
0
CIRCLE
8
0
10
-4.658000
20
4.939000
40
0.063500
0
INSERT
8
2
2
RPAD
10
-5.420000
20
4.939000
41
0.203200
42
0.203200
50
0.000000
0
CIRCLE
8
0
10
-5.420000
20
4.939000
40
0.063500
0
INSERT
8
2
2
RPAD
10
-5.166000
20
4.939000
41
0.203200
42
0.203200
50
0.000000
0
CIRCLE
8
0
10
-5.166000
20
4.939000
40
0.063500
0
INSERT
8
2
2
RPAD
10
-4.912000
20
4.939000
41
0.203200
42
0.203200
50
0.000000
0
CIRCLE
8
0
10
-4.912000
20
4.939000
40
0.063500
0
INSERT
8
2
2
RPAD
10
-4.658000
20
5.377000
41
0.203200
42
0.203200
50
0.000000
0
CIRCLE
8
0
10
-4.658000
20
5.377000
40
0.063500
0
INSERT
8
2
2
RPAD
10
-5.420000
20
5.377000
41
0.203200
42
0.203200
50
0.000000
0
CIRCLE
8
0
10
-5.420000
20
5.377000
40
0.063500
0
INSERT
8
2
2
RPAD
10
-5.166000
20
5.377000
41
0.203200
42
0.203200
50
0.000000
0
CIRCLE
8
0
10
-5.166000
20
5.377000
40
0.063500
0
INSERT
8
2
2
RPAD
10
-4.912000
20
5.377000
41
0.203200
42
0.203200
50
0.000000
0
CIRCLE
8
0
10
-4.912000
20
5.377000
40
0.063500
0
INSERT
8
2
2
RPAD
10
-6.607000
20
-3.878000
41
0.203200
42
0.203200
50
180.000000
0
CIRCLE
8
0
10
-6.607000
20
-3.878000
40
0.063500
0
INSERT
8
2
2
RPAD
10
-6.353000
20
-3.878000
41
0.203200
42
0.203200
50
180.000000
0
CIRCLE
8
0
10
-6.353000
20
-3.878000
40
0.063500
0
INSERT
8
2
2
RPAD
10
-2.075000
20
3.555000
41
0.203200
42
0.203200
50
-90.000000
0
CIRCLE
8
0
10
-2.075000
20
3.555000
40
0.063500
0
INSERT
8
2
2
RPAD
10
-2.075000
20
5.401000
41
0.203200
42
0.203200
50
-90.000000
0
CIRCLE
8
0
10
-2.075000
20
5.401000
40
0.063500
0
INSERT
8
2
2
RPAD
10
1.971000
20
3.555000
41
0.203200
42
0.203200
50
-90.000000
0
CIRCLE
8
0
10
1.971000
20
3.555000
40
0.063500
0
INSERT
8
2
2
RPAD
10
1.971000
20
5.401000
41
0.203200
42
0.203200
50
-90.000000
0
CIRCLE
8
0
10
1.971000
20
5.401000
40
0.063500
0
INSERT
8
2
2
RPAD
10
1.133000
20
6.735000
41
0.203200
42
0.203200
50
0.000000
0
CIRCLE
8
0
10
1.133000
20
6.735000
40
0.063500
0
INSERT
8
2
2
RPAD
10
-0.899000
20
6.735000
41
0.203200
42
0.203200
50
0.000000
0
CIRCLE
8
0
10
-0.899000
20
6.735000
40
0.063500
0
INSERT
8
2
2
RPAD
10
-0.645000
20
6.735000
41
0.203200
42
0.203200
50
0.000000
0
CIRCLE
8
0
10
-0.645000
20
6.735000
40
0.063500
0
INSERT
8
2
2
RPAD
10
-0.391000
20
6.735000
41
0.203200
42
0.203200
50
0.000000
0
CIRCLE
8
0
10
-0.391000
20
6.735000
40
0.063500
0
INSERT
8
2
2
RPAD
10
-0.137000
20
6.735000
41
0.203200
42
0.203200
50
0.000000
0
CIRCLE
8
0
10
-0.137000
20
6.735000
40
0.063500
0
INSERT
8
2
2
RPAD
10
0.117000
20
6.735000
41
0.203200
42
0.203200
50
0.000000
0
CIRCLE
8
0
10
0.117000
20
6.735000
40
0.063500
0
INSERT
8
2
2
RPAD
10
0.371000
20
6.735000
41
0.203200
42
0.203200
50
0.000000
0
CIRCLE
8
0
10
0.371000
20
6.735000
40
0.063500
0
INSERT
8
2
2
RPAD
10
0.625000
20
6.735000
41
0.203200
42
0.203200
50
0.000000
0
CIRCLE
8
0
10
0.625000
20
6.735000
40
0.063500
0
INSERT
8
2
2
RPAD
10
0.879000
20
6.735000
41
0.203200
42
0.203200
50
0.000000
0
CIRCLE
8
0
10
0.879000
20
6.735000
40
0.063500
0
INSERT
8
2
2
RPAD
10
-1.661000
20
6.735000
41
0.203200
42
0.203200
50
0.000000
0
CIRCLE
8
0
10
-1.661000
20
6.735000
40
0.063500
0
INSERT
8
2
2
RPAD
10
-1.153000
20
6.735000
41
0.203200
42
0.203200
50
0.000000
0
CIRCLE
8
0
10
-1.153000
20
6.735000
40
0.063500
0
INSERT
8
2
2
RPAD
10
-1.407000
20
6.735000
41
0.203200
42
0.203200
50
0.000000
0
CIRCLE
8
0
10
-1.407000
20
6.735000
40
0.063500
0
INSERT
8
2
2
EPAD
10
-7.291000
20
-3.468000
41
0.381000
42
0.381000
0
CIRCLE
8
0
10
-7.291000
20
-3.468000
40
0.025400
0
INSERT
8
2
2
EPAD
10
-9.041000
20
-3.468000
41
0.381000
42
0.381000
0
CIRCLE
8
0
10
-9.041000
20
-3.468000
40
0.025400
0
INSERT
8
2
2
EPAD
10
7.211000
20
-3.468000
41
0.381000
42
0.381000
0
CIRCLE
8
0
10
7.211000
20
-3.468000
40
0.025400
0
INSERT
8
2
2
EPAD
10
8.961000
20
-3.468000
41
0.381000
42
0.381000
0
CIRCLE
8
0
10
8.961000
20
-3.468000
40
0.025400
0
INSERT
8
2
2
RPAD
10
8.906000
20
-2.577000
41
0.203200
42
0.203200
50
270.000000
0
CIRCLE
8
0
10
8.906000
20
-2.577000
40
0.063500
0
INSERT
8
2
2
RPAD
10
9.160000
20
-2.577000
41
0.203200
42
0.203200
50
270.000000
0
CIRCLE
8
0
10
9.160000
20
-2.577000
40
0.063500
0
INSERT
8
2
2
RPAD
10
8.906000
20
-1.815000
41
0.203200
42
0.203200
50
270.000000
0
CIRCLE
8
0
10
8.906000
20
-1.815000
40
0.063500
0
INSERT
8
2
2
RPAD
10
9.160000
20
-1.815000
41
0.203200
42
0.203200
50
270.000000
0
CIRCLE
8
0
10
9.160000
20
-1.815000
40
0.063500
0
INSERT
8
2
2
RPAD
10
9.160000
20
-2.203000
41
0.203200
42
0.203200
50
270.000000
0
CIRCLE
8
0
10
9.160000
20
-2.203000
40
0.063500
0
INSERT
8
2
2
RPAD
10
8.906000
20
-2.203000
41
0.203200
42
0.203200
50
270.000000
0
CIRCLE
8
0
10
8.906000
20
-2.203000
40
0.063500
0
INSERT
8
2
2
RPAD
10
-9.244000
20
-2.577000
41
0.203200
42
0.203200
50
270.000000
0
CIRCLE
8
0
10
-9.244000
20
-2.577000
40
0.063500
0
INSERT
8
2
2
RPAD
10
-8.990000
20
-2.577000
41
0.203200
42
0.203200
50
270.000000
0
CIRCLE
8
0
10
-8.990000
20
-2.577000
40
0.063500
0
INSERT
8
2
2
RPAD
10
-9.244000
20
-1.815000
41
0.203200
42
0.203200
50
270.000000
0
CIRCLE
8
0
10
-9.244000
20
-1.815000
40
0.063500
0
INSERT
8
2
2
RPAD
10
-8.990000
20
-1.815000
41
0.203200
42
0.203200
50
270.000000
0
CIRCLE
8
0
10
-8.990000
20
-1.815000
40
0.063500
0
INSERT
8
2
2
RPAD
10
-8.990000
20
-2.203000
41
0.203200
42
0.203200
50
270.000000
0
CIRCLE
8
0
10
-8.990000
20
-2.203000
40
0.063500
0
INSERT
8
2
2
RPAD
10
-9.244000
20
-2.203000
41
0.203200
42
0.203200
50
270.000000
0
CIRCLE
8
0
10
-9.244000
20
-2.203000
40
0.063500
0
INSERT
8
2
2
RPAD
10
-0.360000
20
-3.246000
41
0.203200
42
0.203200
50
0.000000
0
CIRCLE
8
0
10
-0.360000
20
-3.246000
40
0.063500
0
INSERT
8
2
2
RPAD
10
-0.614000
20
-3.246000
41
0.203200
42
0.203200
50
0.000000
0
CIRCLE
8
0
10
-0.614000
20
-3.246000
40
0.063500
0
INSERT
8
2
2
RPAD
10
-0.868000
20
-3.246000
41
0.203200
42
0.203200
50
0.000000
0
CIRCLE
8
0
10
-0.868000
20
-3.246000
40
0.063500
0
INSERT
8
2
2
EPAD
10
-8.123000
20
-3.919000
41
0.203200
42
0.203200
0
CIRCLE
8
0
10
-8.123000
20
-3.919000
40
0.063500
0
INSERT
8
2
2
EPAD
10
-8.127000
20
-4.620000
41
0.203200
42
0.203200
0
CIRCLE
8
0
10
-8.127000
20
-4.620000
40
0.063500
0
INSERT
8
2
2
EPAD
10
5.916000
20
-3.200000
41
0.203200
42
0.203200
0
CIRCLE
8
0
10
5.916000
20
-3.200000
40
0.063500
0
INSERT
8
2
2
EPAD
10
4.966000
20
-3.200000
41
0.203200
42
0.203200
0
CIRCLE
8
0
10
4.966000
20
-3.200000
40
0.063500
0
INSERT
8
2
2
EPAD
10
5.901000
20
-3.713000
41
0.203200
42
0.203200
0
CIRCLE
8
0
10
5.901000
20
-3.713000
40
0.063500
0
INSERT
8
2
2
EPAD
10
4.500000
20
-3.700000
41
0.203200
42
0.203200
0
CIRCLE
8
0
10
4.500000
20
-3.700000
40
0.063500
0
INSERT
8
2
2
EPAD
10
0.337000
20
-2.819000
41
0.203200
42
0.203200
0
CIRCLE
8
0
10
0.337000
20
-2.819000
40
0.063500
0
INSERT
8
2
2
EPAD
10
-0.468000
20
-2.820000
41
0.203200
42
0.203200
0
CIRCLE
8
0
10
-0.468000
20
-2.820000
40
0.063500
0
INSERT
8
2
2
EPAD
10
1.570000
20
3.206000
41
0.203200
42
0.203200
0
CIRCLE
8
0
10
1.570000
20
3.206000
40
0.063500
0
INSERT
8
2
2
EPAD
10
1.564000
20
3.981000
41
0.203200
42
0.203200
0
CIRCLE
8
0
10
1.564000
20
3.981000
40
0.063500
0
INSERT
8
2
2
EPAD
10
-5.412000
20
2.804000
41
0.203200
42
0.203200
0
CIRCLE
8
0
10
-5.412000
20
2.804000
40
0.063500
0
INSERT
8
2
2
EPAD
10
-5.411000
20
3.676000
41
0.203200
42
0.203200
0
CIRCLE
8
0
10
-5.411000
20
3.676000
40
0.063500
0
INSERT
8
2
2
EPAD
10
-3.433000
20
2.935000
41
0.203200
42
0.203200
0
CIRCLE
8
0
10
-3.433000
20
2.935000
40
0.063500
0
INSERT
8
2
2
EPAD
10
-3.186000
20
2.938000
41
0.203200
42
0.203200
0
CIRCLE
8
0
10
-3.186000
20
2.938000
40
0.063500
0
INSERT
8
2
2
EPAD
10
-4.912000
20
5.175000
41
0.203200
42
0.203200
0
CIRCLE
8
0
10
-4.912000
20
5.175000
40
0.063500
0
INSERT
8
2
2
EPAD
10
-5.166000
20
5.174000
41
0.203200
42
0.203200
0
CIRCLE
8
0
10
-5.166000
20
5.174000
40
0.063500
0
INSERT
8
2
2
EPAD
10
-3.691000
20
3.834000
41
0.203200
42
0.203200
0
CIRCLE
8
0
10
-3.691000
20
3.834000
40
0.063500
0
INSERT
8
2
2
EPAD
10
-3.942000
20
2.940000
41
0.203200
42
0.203200
0
CIRCLE
8
0
10
-3.942000
20
2.940000
40
0.063500
0
INSERT
8
2
2
EPAD
10
-3.692000
20
2.939000
41
0.203200
42
0.203200
0
CIRCLE
8
0
10
-3.692000
20
2.939000
40
0.063500
0
INSERT
8
2
2
EPAD
10
-3.436000
20
3.830000
41
0.203200
42
0.203200
0
CIRCLE
8
0
10
-3.436000
20
3.830000
40
0.063500
0
INSERT
8
2
2
EPAD
10
-3.142000
20
-3.778427
41
0.203200
42
0.203200
0
CIRCLE
8
0
10
-3.142000
20
-3.778427
40
0.063500
0
INSERT
8
2
2
EPAD
10
-3.144000
20
-4.668427
41
0.203200
42
0.203200
0
CIRCLE
8
0
10
-3.144000
20
-4.668427
40
0.063500
0
INSERT
8
2
2
EPAD
10
-2.889000
20
-4.670427
41
0.203200
42
0.203200
0
CIRCLE
8
0
10
-2.889000
20
-4.670427
40
0.063500
0
INSERT
8
2
2
EPAD
10
-2.887000
20
-3.780427
41
0.203200
42
0.203200
0
CIRCLE
8
0
10
-2.887000
20
-3.780427
40
0.063500
0
INSERT
8
2
2
EPAD
10
-3.651000
20
-3.773427
41
0.203200
42
0.203200
0
CIRCLE
8
0
10
-3.651000
20
-3.773427
40
0.063500
0
INSERT
8
2
2
EPAD
10
-3.653000
20
-4.663427
41
0.203200
42
0.203200
0
CIRCLE
8
0
10
-3.653000
20
-4.663427
40
0.063500
0
INSERT
8
2
2
EPAD
10
-3.403000
20
-4.664427
41
0.203200
42
0.203200
0
CIRCLE
8
0
10
-3.403000
20
-4.664427
40
0.063500
0
INSERT
8
2
2
EPAD
10
-3.401000
20
-3.774427
41
0.203200
42
0.203200
0
CIRCLE
8
0
10
-3.401000
20
-3.774427
40
0.063500
0
INSERT
8
2
2
RPAD
10
1.133000
20
6.988000
41
0.203200
42
0.203200
50
0.000000
0
CIRCLE
8
0
10
1.133000
20
6.988000
40
0.063500
0
INSERT
8
2
2
RPAD
10
-0.899000
20
6.988000
41
0.203200
42
0.203200
50
0.000000
0
CIRCLE
8
0
10
-0.899000
20
6.988000
40
0.063500
0
INSERT
8
2
2
RPAD
10
-0.645000
20
6.988000
41
0.203200
42
0.203200
50
0.000000
0
CIRCLE
8
0
10
-0.645000
20
6.988000
40
0.063500
0
INSERT
8
2
2
RPAD
10
-0.391000
20
6.988000
41
0.203200
42
0.203200
50
0.000000
0
CIRCLE
8
0
10
-0.391000
20
6.988000
40
0.063500
0
INSERT
8
2
2
RPAD
10
-0.137000
20
6.988000
41
0.203200
42
0.203200
50
0.000000
0
CIRCLE
8
0
10
-0.137000
20
6.988000
40
0.063500
0
INSERT
8
2
2
RPAD
10
0.117000
20
6.988000
41
0.203200
42
0.203200
50
0.000000
0
CIRCLE
8
0
10
0.117000
20
6.988000
40
0.063500
0
INSERT
8
2
2
RPAD
10
0.371000
20
6.988000
41
0.203200
42
0.203200
50
0.000000
0
CIRCLE
8
0
10
0.371000
20
6.988000
40
0.063500
0
INSERT
8
2
2
RPAD
10
0.625000
20
6.988000
41
0.203200
42
0.203200
50
0.000000
0
CIRCLE
8
0
10
0.625000
20
6.988000
40
0.063500
0
INSERT
8
2
2
RPAD
10
0.879000
20
6.988000
41
0.203200
42
0.203200
50
0.000000
0
CIRCLE
8
0
10
0.879000
20
6.988000
40
0.063500
0
INSERT
8
2
2
RPAD
10
-1.661000
20
6.988000
41
0.203200
42
0.203200
50
0.000000
0
CIRCLE
8
0
10
-1.661000
20
6.988000
40
0.063500
0
INSERT
8
2
2
RPAD
10
-1.153000
20
6.988000
41
0.203200
42
0.203200
50
0.000000
0
CIRCLE
8
0
10
-1.153000
20
6.988000
40
0.063500
0
INSERT
8
2
2
RPAD
10
-1.407000
20
6.988000
41
0.203200
42
0.203200
50
0.000000
0
CIRCLE
8
0
10
-1.407000
20
6.988000
40
0.063500
0
INSERT
8
2
2
EPAD
10
-3.923000
20
-3.783000
41
0.203200
42
0.203200
0
CIRCLE
8
0
10
-3.923000
20
-3.783000
40
0.063500
0
INSERT
8
2
2
EPAD
10
-3.923000
20
-4.660000
41
0.203200
42
0.203200
0
CIRCLE
8
0
10
-3.923000
20
-4.660000
40
0.063500
0
INSERT
8
2
2
EPAD
10
-4.562500
20
3.820500
41
0.203200
42
0.203200
0
CIRCLE
8
0
10
-4.562500
20
3.820500
40
0.063500
0
INSERT
8
2
2
EPAD
10
-4.435000
20
2.940000
41
0.203200
42
0.203200
0
CIRCLE
8
0
10
-4.435000
20
2.940000
40
0.063500
0
INSERT
8
2
2
EPAD
10
-4.792500
20
4.049500
41
0.203200
42
0.203200
0
CIRCLE
8
0
10
-4.792500
20
4.049500
40
0.063500
0
INSERT
8
2
2
EPAD
10
-3.918000
20
4.678000
41
0.203200
42
0.203200
0
CIRCLE
8
0
10
-3.918000
20
4.678000
40
0.063500
0
INSERT
8
2
2
EPAD
10
7.546000
20
-3.940000
41
0.203200
42
0.203200
0
CIRCLE
8
0
10
7.546000
20
-3.940000
40
0.063500
0
INSERT
8
2
2
EPAD
10
7.292000
20
-3.940000
41
0.203200
42
0.203200
0
CIRCLE
8
0
10
7.292000
20
-3.940000
40
0.063500
0
INSERT
8
2
2
EPAD
10
8.780000
20
-3.814000
41
0.203200
42
0.203200
0
CIRCLE
8
0
10
8.780000
20
-3.814000
40
0.063500
0
INSERT
8
2
2
EPAD
10
8.780000
20
-4.068000
41
0.203200
42
0.203200
0
CIRCLE
8
0
10
8.780000
20
-4.068000
40
0.063500
0
INSERT
8
2
2
EPAD
10
7.825000
20
3.824000
41
0.203200
42
0.203200
0
CIRCLE
8
0
10
7.825000
20
3.824000
40
0.063500
0
INSERT
8
2
2
EPAD
10
7.085000
20
3.024000
41
0.203200
42
0.203200
0
CIRCLE
8
0
10
7.085000
20
3.024000
40
0.063500
0
INSERT
8
2
2
RPAD
10
8.412000
20
-3.861000
41
0.203200
42
0.203200
50
0.000000
0
CIRCLE
8
0
10
8.412000
20
-3.861000
40
0.063500
0
INSERT
8
2
2
RPAD
10
7.774000
20
-4.116000
41
0.203200
42
0.203200
50
0.000000
0
CIRCLE
8
0
10
7.774000
20
-4.116000
40
0.063500
0
INSERT
8
2
2
RPAD
10
8.415000
20
-4.119000
41
0.203200
42
0.203200
50
0.000000
0
CIRCLE
8
0
10
8.415000
20
-4.119000
40
0.063500
0
INSERT
8
2
2
EPAD
10
3.897000
20
7.681000
41
0.203200
42
0.203200
0
CIRCLE
8
0
10
3.897000
20
7.681000
40
0.063500
0
INSERT
8
2
2
EPAD
10
-3.925000
20
7.681000
41
0.203200
42
0.203200
0
CIRCLE
8
0
10
-3.925000
20
7.681000
40
0.063500
0
INSERT
8
2
2
EPAD
10
-3.912000
20
7.420000
41
0.203200
42
0.203200
0
CIRCLE
8
0
10
-3.912000
20
7.420000
40
0.063500
0
INSERT
8
2
2
EPAD
10
3.897000
20
7.420000
41
0.203200
42
0.203200
0
CIRCLE
8
0
10
3.897000
20
7.420000
40
0.063500
0
POLYLINE
8
3
66
1
40
0.010160
41
0.010160
0
VERTEX
8
3
10
-9.595000
20
-8.967000
0
VERTEX
8
3
10
9.505000
20
-8.967000
0
VERTEX
8
3
10
9.505000
20
8.033000
0
VERTEX
8
3
10
-9.595000
20
8.033000
0
VERTEX
8
3
10
-9.595000
20
-8.967000
0
SEQEND
8
3
0
CIRCLE
8
4
10
-7.204000
20
7.535000
40
0.200000
0
CIRCLE
8
4
10
6.604000
20
7.584000
40
0.200000
0
CIRCLE
8
4
10
-7.194000
20
4.848000
40
0.200000
0
CIRCLE
8
4
10
6.606000
20
4.883000
40
0.200000
0
POLYLINE
8
3
66
1
40
0.010160
41
0.010160
0
VERTEX
8
3
10
-0.801000
20
4.347000
0
VERTEX
8
3
10
0.699000
20
4.347000
0
VERTEX
8
3
10
0.699000
20
5.247000
0
VERTEX
8
3
10
-0.801000
20
5.247000
0
VERTEX
8
3
10
-0.801000
20
4.347000
0
SEQEND
8
3
0
CIRCLE
8
4
10
1.899000
20
2.773000
40
0.150000
0
CIRCLE
8
4
10
1.899000
20
-2.027000
40
0.150000
0
CIRCLE
8
4
10
-2.001000
20
-2.027000
40
0.150000
0
CIRCLE
8
4
10
-2.001121
20
2.771911
40
0.150000
0
ENDSEC
0
EOF

